<svg width="21" height="21" viewBox="0 0 21 21" fill="none" xmlns="http://www.w3.org/2000/svg">
<g clip-path="url(#clip0_140_14676)">
<path d="M12.3086 2.59937V5.9327C12.3086 6.15371 12.3964 6.36567 12.5527 6.52195C12.709 6.67823 12.9209 6.76603 13.1419 6.76603H16.4753" stroke="#464255" stroke-width="2" stroke-linecap="round" stroke-linejoin="round"/>
<path d="M16.4751 10.0994V15.9327C16.5145 16.2472 16.4521 16.566 16.2971 16.8425C16.1421 17.119 15.9026 17.3385 15.6137 17.469C15.3249 17.5994 15.0018 17.6339 14.6919 17.5674C14.382 17.5009 14.1016 17.3369 13.8917 17.0994C13.7631 16.9348 13.5987 16.8018 13.411 16.7102C13.2233 16.6187 13.0172 16.5711 12.8084 16.5711C12.5996 16.5711 12.3935 16.6187 12.2058 16.7102C12.018 16.8018 11.8537 16.9348 11.7251 17.0994C11.5964 17.2639 11.4321 17.397 11.2443 17.4885C11.0566 17.58 10.8505 17.6276 10.6417 17.6276C10.4329 17.6276 10.2268 17.58 10.0391 17.4885C9.85138 17.397 9.68699 17.2639 9.55838 17.0994C9.42978 16.9348 9.26539 16.8018 9.07768 16.7102C8.88997 16.6187 8.68388 16.5711 8.47505 16.5711C8.26622 16.5711 8.06013 16.6187 7.87242 16.7102C7.68472 16.8018 7.52032 16.9348 7.39172 17.0994C7.18183 17.3369 6.90139 17.5009 6.5915 17.5674C6.2816 17.6339 5.95855 17.5994 5.66969 17.469C5.38083 17.3385 5.14135 17.119 4.98635 16.8425C4.83135 16.566 4.76898 16.2472 4.80838 15.9327V4.26603C4.80838 3.824 4.98398 3.40008 5.29654 3.08752C5.6091 2.77496 6.03302 2.59937 6.47505 2.59937H12.3084L16.4751 6.76603V10.3077" stroke="#464255" stroke-width="2" stroke-linecap="round" stroke-linejoin="round"/>
</g>
<defs>
<clipPath id="clip0_140_14676">
<rect width="20" height="20" fill="white" transform="translate(0.640625 0.0993652)"/>
</clipPath>
</defs>
</svg>
