<svg width="21" height="21" viewBox="0 0 21 21" fill="none" xmlns="http://www.w3.org/2000/svg">
<g clip-path="url(#clip0_140_14705)">
<path d="M4.99609 14.7109C4.99609 15.1529 5.17169 15.5768 5.48425 15.8894C5.79681 16.2019 6.22073 16.3775 6.66276 16.3775C7.10479 16.3775 7.52871 16.2019 7.84127 15.8894C8.15383 15.5768 8.32943 15.1529 8.32943 14.7109C8.32943 14.2688 8.15383 13.8449 7.84127 13.5323C7.52871 13.2198 7.10479 13.0442 6.66276 13.0442C6.22073 13.0442 5.79681 13.2198 5.48425 13.5323C5.17169 13.8449 4.99609 14.2688 4.99609 14.7109Z" stroke="#464255" stroke-width="2" stroke-linecap="round" stroke-linejoin="round"/>
<path d="M13.3281 14.7109C13.3281 15.1529 13.5037 15.5768 13.8163 15.8894C14.1288 16.2019 14.5528 16.3775 14.9948 16.3775C15.4368 16.3775 15.8607 16.2019 16.1733 15.8894C16.4859 15.5768 16.6615 15.1529 16.6615 14.7109C16.6615 14.2688 16.4859 13.8449 16.1733 13.5323C15.8607 13.2198 15.4368 13.0442 14.9948 13.0442C14.5528 13.0442 14.1288 13.2198 13.8163 13.5323C13.5037 13.8449 13.3281 14.2688 13.3281 14.7109Z" stroke="#464255" stroke-width="2" stroke-linecap="round" stroke-linejoin="round"/>
<path d="M4.99479 14.7109H3.32812V5.54427C3.32812 5.32326 3.41592 5.1113 3.5722 4.95502C3.72848 4.79874 3.94044 4.71094 4.16146 4.71094H11.6615V9.71094H7.49479M7.49479 9.71094L9.16146 11.3776M7.49479 9.71094L9.16146 8.04427" stroke="#464255" stroke-width="2" stroke-linecap="round" stroke-linejoin="round"/>
<path d="M8.32812 14.7109H13.3281" stroke="#464255" stroke-width="2" stroke-linecap="round" stroke-linejoin="round"/>
<path d="M11.6602 5.54419H15.8268L18.3268 9.71086V14.7109H16.6602" stroke="#464255" stroke-width="2" stroke-linecap="round" stroke-linejoin="round"/>
</g>
<defs>
<clipPath id="clip0_140_14705">
<rect width="20" height="20" fill="white" transform="translate(0.828125 0.544189)"/>
</clipPath>
</defs>
</svg>
