<svg width="21" height="21" viewBox="0 0 21 21" fill="none" xmlns="http://www.w3.org/2000/svg">
<g clip-path="url(#clip0_140_14682)">
<path d="M8.14193 4.83337H6.47526C6.03323 4.83337 5.60931 5.00897 5.29675 5.32153C4.98419 5.63409 4.80859 6.05801 4.80859 6.50004V16.5C4.80859 16.9421 4.98419 17.366 5.29675 17.6786C5.60931 17.9911 6.03323 18.1667 6.47526 18.1667H14.8086C15.2506 18.1667 15.6745 17.9911 15.9871 17.6786C16.2997 17.366 16.4753 16.9421 16.4753 16.5V6.50004C16.4753 6.05801 16.2997 5.63409 15.9871 5.32153C15.6745 5.00897 15.2506 4.83337 14.8086 4.83337H13.1419" stroke="#575757" stroke-width="2" stroke-linecap="round" stroke-linejoin="round"/>
<path d="M8.14062 4.83341C8.14062 4.39139 8.31622 3.96746 8.62878 3.6549C8.94134 3.34234 9.36526 3.16675 9.80729 3.16675H11.474C11.916 3.16675 12.3399 3.34234 12.6525 3.6549C12.965 3.96746 13.1406 4.39139 13.1406 4.83341C13.1406 5.27544 12.965 5.69937 12.6525 6.01193C12.3399 6.32449 11.916 6.50008 11.474 6.50008H9.80729C9.36526 6.50008 8.94134 6.32449 8.62878 6.01193C8.31622 5.69937 8.14062 5.27544 8.14062 4.83341Z" stroke="#575757" stroke-width="2" stroke-linecap="round" stroke-linejoin="round"/>
<path d="M8.14062 14.8334V10.6667" stroke="#575757" stroke-width="2" stroke-linecap="round" stroke-linejoin="round"/>
<path d="M10.6406 14.8335V14.0001" stroke="#575757" stroke-width="2" stroke-linecap="round" stroke-linejoin="round"/>
<path d="M13.1406 14.8334V12.3334" stroke="#575757" stroke-width="2" stroke-linecap="round" stroke-linejoin="round"/>
</g>
<defs>
<clipPath id="clip0_140_14682">
<rect width="20" height="20" fill="white" transform="translate(0.640625 0.666748)"/>
</clipPath>
</defs>
</svg>
