<svg width="21" height="21" viewBox="0 0 21 21" fill="none" xmlns="http://www.w3.org/2000/svg">
<g clip-path="url(#clip0_167_9245)">
<path d="M7.78125 12.7842L10.2812 10.2842M11.9479 8.61751L12.7812 7.78418" stroke="#464255" stroke-width="2" stroke-linecap="round" stroke-linejoin="round"/>
<path d="M7.90693 7.90527C7.84749 7.96308 7.80672 8.03736 7.78989 8.11855C7.77306 8.19974 7.78093 8.28411 7.8125 8.36078C7.84406 8.43745 7.89787 8.50291 7.96699 8.54872C8.0361 8.59452 8.11735 8.61857 8.20026 8.61777C8.30922 8.61798 8.41392 8.5755 8.49193 8.49944" stroke="#464255" stroke-width="2" stroke-linecap="round" stroke-linejoin="round"/>
<path d="M12.071 12.0713C12.0115 12.1291 11.9708 12.2034 11.954 12.2846C11.9371 12.3658 11.945 12.4501 11.9766 12.5268C12.0081 12.6035 12.0619 12.6689 12.131 12.7147C12.2002 12.7605 12.2814 12.7846 12.3643 12.7838C12.4733 12.784 12.578 12.7415 12.656 12.6655" stroke="#464255" stroke-width="2" stroke-linecap="round" stroke-linejoin="round"/>
<path d="M7.68551 4.35956C7.95632 4.27027 8.20257 4.11904 8.40468 3.9179L8.98801 3.33456C9.15839 3.16323 9.36095 3.02727 9.58405 2.93449C9.80715 2.84171 10.0464 2.79395 10.288 2.79395C10.5296 2.79395 10.7689 2.84171 10.992 2.93449C11.2151 3.02727 11.4176 3.16323 11.588 3.33456L12.1713 3.9179C12.5147 4.25956 12.9797 4.45123 13.463 4.45123H14.2963C14.7826 4.45123 15.2489 4.64438 15.5927 4.9882C15.9365 5.33202 16.1297 5.79833 16.1297 6.28456V7.1179C16.1297 7.60123 16.3213 8.06623 16.663 8.40956L17.2463 8.9929C17.4177 9.16327 17.5536 9.36583 17.6464 9.58893C17.7392 9.81203 17.787 10.0513 17.787 10.2929C17.787 10.5345 17.7392 10.7738 17.6464 10.9969C17.5536 11.22 17.4177 11.4225 17.2463 11.5929L16.663 12.1762C16.463 12.3773 16.3124 12.6221 16.223 12.8912M15.5922 15.5979C15.4222 15.7683 15.2202 15.9034 14.9978 15.9955C14.7754 16.0876 14.537 16.1349 14.2963 16.1346H13.463C12.9789 16.1348 12.5146 16.3266 12.1713 16.6679L11.588 17.2512C11.4176 17.4226 11.2151 17.5585 10.992 17.6513C10.7689 17.7441 10.5296 17.7919 10.288 17.7919C10.0464 17.7919 9.80715 17.7441 9.58405 17.6513C9.36095 17.5585 9.15839 17.4226 8.98801 17.2512L8.40468 16.6679C8.06142 16.3266 7.5971 16.1348 7.11301 16.1346H6.27968C5.79345 16.1346 5.32714 15.9414 4.98332 15.5976C4.6395 15.2538 4.44635 14.7875 4.44635 14.3012V13.4679C4.44607 12.9838 4.25435 12.5195 3.91301 12.1762L3.32968 11.5929C3.15835 11.4225 3.02238 11.22 2.9296 10.9969C2.83682 10.7738 2.78906 10.5345 2.78906 10.2929C2.78906 10.0513 2.83682 9.81203 2.9296 9.58893C3.02238 9.36583 3.15835 9.16327 3.32968 8.9929L3.91301 8.40956C4.25435 8.06631 4.44607 7.60198 4.44635 7.1179V6.28456C4.44635 5.78123 4.64968 5.32456 4.97801 4.9929" stroke="#464255" stroke-width="2" stroke-linecap="round" stroke-linejoin="round"/>
<path d="M2.78125 2.78418L17.7812 17.7842" stroke="#464255" stroke-width="2" stroke-linecap="round" stroke-linejoin="round"/>
</g>
<defs>
<clipPath id="clip0_167_9245">
<rect width="20" height="20" fill="white" transform="translate(0.28125 0.28418)"/>
</clipPath>
</defs>
</svg>
