<svg width="21" height="21" viewBox="0 0 21 21" fill="none" xmlns="http://www.w3.org/2000/svg">
<g clip-path="url(#clip0_167_9241)">
<path d="M7.23438 8.88249C7.23438 8.44046 7.40997 8.01654 7.72253 7.70398C8.03509 7.39142 8.45901 7.21582 8.90104 7.21582H16.401C16.8431 7.21582 17.267 7.39142 17.5796 7.70398C17.8921 8.01654 18.0677 8.44046 18.0677 8.88249V16.3825C18.0677 16.8245 17.8921 17.2484 17.5796 17.561C17.267 17.8736 16.8431 18.0492 16.401 18.0492H8.90104C8.45901 18.0492 8.03509 17.8736 7.72253 17.561C7.40997 17.2484 7.23438 16.8245 7.23438 16.3825V8.88249Z" stroke="#464255" stroke-width="2" stroke-linecap="round" stroke-linejoin="round"/>
<path d="M13.9036 7.21549V4.71549C13.9036 4.27347 13.7281 3.84954 13.4155 3.53698C13.1029 3.22442 12.679 3.04883 12.237 3.04883H4.73698C4.29495 3.04883 3.87103 3.22442 3.55847 3.53698C3.24591 3.84954 3.07031 4.27347 3.07031 4.71549V12.2155C3.07031 12.6575 3.24591 13.0814 3.55847 13.394C3.87103 13.7066 4.29495 13.8822 4.73698 13.8822H7.23698" stroke="#464255" stroke-width="2" stroke-linecap="round" stroke-linejoin="round"/>
</g>
<defs>
<clipPath id="clip0_167_9241">
<rect width="20" height="20" fill="white" transform="translate(0.570312 0.548828)"/>
</clipPath>
</defs>
</svg>
