<svg width="21" height="21" viewBox="0 0 21 21" fill="none" xmlns="http://www.w3.org/2000/svg">
<g clip-path="url(#clip0_167_9237)">
<path d="M6.94531 6.38216C6.94531 7.26622 7.2965 8.11406 7.92162 8.73918C8.54674 9.36431 9.39459 9.71549 10.2786 9.71549C11.1627 9.71549 12.0105 9.36431 12.6357 8.73918C13.2608 8.11406 13.612 7.26622 13.612 6.38216C13.612 5.49811 13.2608 4.65026 12.6357 4.02514C12.0105 3.40002 11.1627 3.04883 10.2786 3.04883C9.39459 3.04883 8.54674 3.40002 7.92162 4.02514C7.2965 4.65026 6.94531 5.49811 6.94531 6.38216Z" stroke="#464255" stroke-width="2" stroke-linecap="round" stroke-linejoin="round"/>
<path d="M5.28125 18.0488V16.3822C5.28125 15.4981 5.63244 14.6503 6.25756 14.0251C6.88268 13.4 7.73053 13.0488 8.61458 13.0488H11.9479C12.832 13.0488 13.6798 13.4 14.3049 14.0251C14.9301 14.6503 15.2812 15.4981 15.2812 16.3822V18.0488" stroke="#464255" stroke-width="2" stroke-linecap="round" stroke-linejoin="round"/>
</g>
<defs>
<clipPath id="clip0_167_9237">
<rect width="20" height="20" fill="white" transform="translate(0.28125 0.548828)"/>
</clipPath>
</defs>
</svg>
