<svg width="56" height="54" viewBox="0 0 56 54" fill="none" xmlns="http://www.w3.org/2000/svg">
<g clip-path="url(#clip0_180_6391)">
<path d="M46.1297 25.2313L27.6016 7.37695L6.97656 27.252H11.5599V42.7103C11.5599 43.8817 12.0428 45.0051 12.9023 45.8333C13.7619 46.6616 14.9277 47.127 16.1432 47.127H26.4557" stroke="black" stroke-width="2" stroke-linecap="round" stroke-linejoin="round"/>
<path d="M20.7266 47.1266V33.8766C20.7266 32.7053 21.2094 31.5819 22.069 30.7536C22.9285 29.9253 24.0943 29.46 25.3099 29.46H29.8932C30.7606 29.46 31.6101 29.6972 32.3432 30.144C33.0762 30.5908 33.6626 31.2289 34.0343 31.9841" stroke="black" stroke-width="2" stroke-linecap="round" stroke-linejoin="round"/>
<path d="M45.9375 47.1273C45.9375 47.713 46.1789 48.2747 46.6087 48.6888C47.0385 49.103 47.6214 49.3356 48.2292 49.3356C48.837 49.3356 49.4199 49.103 49.8496 48.6888C50.2794 48.2747 50.5208 47.713 50.5208 47.1273C50.5208 46.5416 50.2794 45.9799 49.8496 45.5657C49.4199 45.1516 48.837 44.9189 48.2292 44.9189C47.6214 44.9189 47.0385 45.1516 46.6087 45.5657C46.1789 45.9799 45.9375 46.5416 45.9375 47.1273Z" stroke="black" stroke-width="2" stroke-linecap="round" stroke-linejoin="round"/>
<path d="M45.9375 36.0853C45.9375 36.671 46.1789 37.2327 46.6087 37.6468C47.0385 38.061 47.6214 38.2936 48.2292 38.2936C48.837 38.2936 49.4199 38.061 49.8496 37.6468C50.2794 37.2327 50.5208 36.671 50.5208 36.0853C50.5208 35.4996 50.2794 34.9379 49.8496 34.5238C49.4199 34.1096 48.837 33.877 48.2292 33.877C47.6214 33.877 47.0385 34.1096 46.6087 34.5238C46.1789 34.9379 45.9375 35.4996 45.9375 36.0853Z" stroke="black" stroke-width="2" stroke-linecap="round" stroke-linejoin="round"/>
<path d="M34.4766 42.7103C34.4766 43.296 34.718 43.8577 35.1478 44.2718C35.5775 44.686 36.1604 44.9186 36.7682 44.9186C37.376 44.9186 37.9589 44.686 38.3887 44.2718C38.8185 43.8577 39.0599 43.296 39.0599 42.7103C39.0599 42.1246 38.8185 41.5629 38.3887 41.1488C37.9589 40.7346 37.376 40.502 36.7682 40.502C36.1604 40.502 35.5775 40.7346 35.1478 41.1488C34.718 41.5629 34.4766 42.1246 34.4766 42.7103Z" stroke="black" stroke-width="2" stroke-linecap="round" stroke-linejoin="round"/>
<path d="M48.224 36.085L36.7656 42.71L48.224 47.1266" stroke="black" stroke-width="2" stroke-linecap="round" stroke-linejoin="round"/>
</g>
<defs>
<clipPath id="clip0_180_6391">
<rect width="55" height="53" fill="white" transform="translate(0.101562 0.751953)"/>
</clipPath>
</defs>
</svg>
