<svg width="21" height="21" viewBox="0 0 21 21" fill="none" xmlns="http://www.w3.org/2000/svg">
<g clip-path="url(#clip0_172_10039)">
<path d="M16.8516 6.15076C17.138 6.31365 17.3758 6.54991 17.5406 6.83523C17.7053 7.12055 17.7911 7.44462 17.7891 7.7741V13.8441C17.7891 14.5183 17.4199 15.1399 16.8241 15.4674L11.1991 19.0258C10.9202 19.1789 10.6072 19.2591 10.2891 19.2591C9.97093 19.2591 9.65793 19.1789 9.37906 19.0258L3.75406 15.4674C3.46253 15.3081 3.21917 15.0734 3.04941 14.7878C2.87965 14.5023 2.78973 14.1763 2.78906 13.8441V7.77326C2.78906 7.0991 3.15823 6.47826 3.75406 6.15076L9.37906 2.8341C9.66618 2.6758 9.9887 2.59277 10.3166 2.59277C10.6444 2.59277 10.9669 2.6758 11.2541 2.8341L16.8791 6.15076H16.8516Z" stroke="#464255" stroke-width="2" stroke-linecap="round" stroke-linejoin="round"/>
<path d="M7.78906 10.9258C7.78906 11.5888 8.05245 12.2247 8.5213 12.6935C8.99014 13.1624 9.62602 13.4258 10.2891 13.4258C10.9521 13.4258 11.588 13.1624 12.0568 12.6935C12.5257 12.2247 12.7891 11.5888 12.7891 10.9258C12.7891 10.2627 12.5257 9.62685 12.0568 9.15801C11.588 8.68917 10.9521 8.42578 10.2891 8.42578C9.62602 8.42578 8.99014 8.68917 8.5213 9.15801C8.05245 9.62685 7.78906 10.2627 7.78906 10.9258Z" stroke="#464255" stroke-width="2" stroke-linecap="round" stroke-linejoin="round"/>
</g>
<defs>
<clipPath id="clip0_172_10039">
<rect width="20" height="20" fill="white" transform="translate(0.289062 0.925781)"/>
</clipPath>
</defs>
</svg>
