<svg width="56" height="54" viewBox="0 0 56 54" fill="none" xmlns="http://www.w3.org/2000/svg">
<g clip-path="url(#clip0_176_5441)">
<path d="M18.5625 15.8343C18.5625 18.1771 19.5283 20.4238 21.2474 22.0804C22.9664 23.737 25.298 24.6676 27.7292 24.6676C30.1603 24.6676 32.4919 23.737 34.211 22.0804C35.9301 20.4238 36.8958 18.1771 36.8958 15.8343C36.8958 13.4916 35.9301 11.2448 34.211 9.5882C32.4919 7.93163 30.1603 7.00098 27.7292 7.00098C25.298 7.00098 22.9664 7.93163 21.2474 9.5882C19.5283 11.2448 18.5625 13.4916 18.5625 15.8343Z" stroke="#575757" stroke-width="2" stroke-linecap="round" stroke-linejoin="round"/>
<path d="M13.9766 46.751V42.3343C13.9766 39.9916 14.9423 37.7448 16.6614 36.0882C18.3805 34.4316 20.7121 33.501 23.1432 33.501H32.3099C34.741 33.501 37.0726 34.4316 38.7917 36.0882C40.5108 37.7448 41.4766 39.9916 41.4766 42.3343V46.751" stroke="#575757" stroke-width="2" stroke-linecap="round" stroke-linejoin="round"/>
</g>
<defs>
<clipPath id="clip0_176_5441">
<rect width="55" height="53" fill="white" transform="translate(0.226562 0.375977)"/>
</clipPath>
</defs>
</svg>
