<svg width="21" height="21" viewBox="0 0 21 21" fill="none" xmlns="http://www.w3.org/2000/svg">
<g clip-path="url(#clip0_172_10049)">
<path d="M10.6957 18.3699C9.97656 18.5724 9.11073 18.2249 8.89323 17.3283C8.83996 17.1084 8.73555 16.9043 8.58847 16.7324C8.4414 16.5606 8.25582 16.4259 8.04685 16.3393C7.83788 16.2527 7.61142 16.2167 7.38591 16.2342C7.16039 16.2517 6.94219 16.3222 6.74906 16.4399C5.46323 17.2233 3.99073 15.7516 4.77406 14.4649C4.89165 14.2719 4.96202 14.0538 4.97947 13.8285C4.99691 13.6031 4.96093 13.3768 4.87446 13.168C4.78798 12.9591 4.65345 12.7736 4.48179 12.6266C4.31013 12.4795 4.1062 12.375 3.88656 12.3216C2.42323 11.9666 2.42323 9.88495 3.88656 9.52995C4.1064 9.47668 4.31054 9.37226 4.4824 9.22519C4.65425 9.07811 4.78894 8.89254 4.87552 8.68357C4.96209 8.4746 4.9981 8.24814 4.98062 8.02263C4.96313 7.79711 4.89265 7.57891 4.7749 7.38578C3.99156 6.09995 5.46323 4.62745 6.7499 5.41078C7.58323 5.91745 8.66323 5.46911 8.89323 4.52328C9.24823 3.05995 11.3299 3.05995 11.6849 4.52328C11.7382 4.74311 11.8426 4.94726 11.9897 5.11911C12.1367 5.29096 12.3223 5.42566 12.5313 5.51224C12.7402 5.59881 12.9667 5.63482 13.1922 5.61734C13.4177 5.59985 13.6359 5.52937 13.8291 5.41161C15.1149 4.62828 16.5874 6.09995 15.8041 7.38661C15.6865 7.57966 15.6161 7.79773 15.5987 8.02309C15.5812 8.24846 15.6172 8.47476 15.7037 8.6836C15.7901 8.89244 15.9247 9.07793 16.0963 9.22499C16.268 9.37205 16.4719 9.47654 16.6916 9.52995C18.1549 9.88495 18.1549 11.9666 16.6916 12.3216C16.2457 12.4299 15.8782 12.7441 15.7024 13.1683C15.6616 13.2666 15.6324 13.3224 15.6141 13.4258" stroke="#464255" stroke-width="2" stroke-linecap="round" stroke-linejoin="round"/>
<path d="M13.625 16.7588H18.625" stroke="#464255" stroke-width="2" stroke-linecap="round" stroke-linejoin="round"/>
<path d="M7.78906 10.9258C7.78906 11.5888 8.05245 12.2247 8.5213 12.6935C8.99014 13.1624 9.62602 13.4258 10.2891 13.4258C10.9521 13.4258 11.588 13.1624 12.0568 12.6935C12.5257 12.2247 12.7891 11.5888 12.7891 10.9258C12.7891 10.2627 12.5257 9.62685 12.0568 9.15801C11.588 8.68917 10.9521 8.42578 10.2891 8.42578C9.62602 8.42578 8.99014 8.68917 8.5213 9.15801C8.05245 9.62685 7.78906 10.2627 7.78906 10.9258Z" stroke="#464255" stroke-width="2" stroke-linecap="round" stroke-linejoin="round"/>
</g>
<defs>
<clipPath id="clip0_172_10049">
<rect width="20" height="20" fill="white" transform="translate(0.289062 0.925781)"/>
</clipPath>
</defs>
</svg>
