<svg width="21" height="21" viewBox="0 0 21 21" fill="none" xmlns="http://www.w3.org/2000/svg">
<g clip-path="url(#clip0_172_10023)">
<path d="M9.64823 17.5813C9.45827 17.4899 9.29158 17.3565 9.16078 17.1912C9.02998 17.0259 8.93849 16.833 8.89323 16.6271C8.83996 16.4073 8.73555 16.2031 8.58847 16.0313C8.4414 15.8594 8.25582 15.7247 8.04685 15.6382C7.83788 15.5516 7.61142 15.5156 7.38591 15.5331C7.16039 15.5505 6.94219 15.621 6.74906 15.7388C5.46323 16.5221 3.99073 15.0504 4.77406 13.7638C4.89165 13.5707 4.96202 13.3527 4.97947 13.1273C4.99691 12.9019 4.96093 12.6756 4.87446 12.4668C4.78798 12.258 4.65345 12.0725 4.48179 11.9254C4.31013 11.7783 4.1062 11.6739 3.88656 11.6204C2.42323 11.2654 2.42323 9.18378 3.88656 8.82878C4.1064 8.77551 4.31055 8.67109 4.4824 8.52402C4.65425 8.37694 4.78894 8.19137 4.87552 7.9824C4.96209 7.77343 4.99811 7.54697 4.98062 7.32145C4.96314 7.09594 4.89265 6.87774 4.7749 6.68461C3.99156 5.39878 5.46323 3.92628 6.7499 4.70961C7.58323 5.21628 8.66323 4.76794 8.89323 3.82211C9.24823 2.35878 11.3299 2.35878 11.6849 3.82211C11.7382 4.04194 11.8426 4.24609 11.9897 4.41794C12.1367 4.58979 12.3223 4.72449 12.5313 4.81106C12.7402 4.89764 12.9667 4.93365 13.1922 4.91617C13.4177 4.89868 13.6359 4.82819 13.8291 4.71044C15.1149 3.92711 16.5874 5.39878 15.8041 6.68544C15.6865 6.87849 15.6161 7.09656 15.5987 7.32192C15.5812 7.54728 15.6172 7.77358 15.7037 7.98243C15.7901 8.19127 15.9247 8.37676 16.0963 8.52382C16.268 8.67088 16.4719 8.77536 16.6916 8.82878C17.1157 8.93128 17.4166 9.17961 17.5949 9.48878" stroke="#464255" stroke-width="2" stroke-linecap="round" stroke-linejoin="round"/>
<path d="M12.6922 9.52839C12.5776 9.13251 12.367 8.77107 12.0791 8.47622C11.7912 8.18137 11.4348 7.96225 11.0418 7.83835C10.6487 7.71445 10.2311 7.68961 9.82614 7.76603C9.42116 7.84246 9.04135 8.01778 8.72049 8.27641C8.39962 8.53504 8.14764 8.86896 7.98696 9.24847C7.82629 9.62797 7.76189 10.0413 7.7995 10.4517C7.83711 10.8621 7.97556 11.2569 8.20254 11.6008C8.42952 11.9448 8.73799 12.2274 9.10052 12.4234" stroke="#464255" stroke-width="2" stroke-linecap="round" stroke-linejoin="round"/>
<path d="M15.2866 18.5576L18.0782 15.821C18.2494 15.6548 18.3856 15.4561 18.4787 15.2365C18.5718 15.0169 18.62 14.7808 18.6204 14.5423C18.6208 14.3037 18.5734 14.0675 18.481 13.8476C18.3886 13.6277 18.253 13.4285 18.0824 13.2618C17.7342 12.9212 17.2667 12.7301 16.7797 12.7292C16.2926 12.7283 15.8244 12.9176 15.4749 13.2568L15.2882 13.4401L15.1024 13.2568C14.7542 12.9165 14.2869 12.7255 13.8001 12.7246C13.3132 12.7237 12.8452 12.9128 12.4957 13.2518C12.3245 13.4179 12.1882 13.6166 12.095 13.8361C12.0018 14.0557 11.9536 14.2918 11.9531 14.5303C11.9527 14.7689 12 15.0051 12.0923 15.225C12.1847 15.445 12.3201 15.6442 12.4907 15.811L15.2866 18.5576Z" stroke="#464255" stroke-width="2" stroke-linecap="round" stroke-linejoin="round"/>
</g>
<defs>
<clipPath id="clip0_172_10023">
<rect width="20" height="20" fill="white" transform="translate(0.289062 0.224609)"/>
</clipPath>
</defs>
</svg>
