<svg width="21" height="21" viewBox="0 0 21 21" fill="none" xmlns="http://www.w3.org/2000/svg">
<g clip-path="url(#clip0_172_10054)">
<path d="M6.95312 5.57389C6.95312 5.13187 7.12872 4.70794 7.44128 4.39538C7.75384 4.08282 8.17776 3.90723 8.61979 3.90723H15.2865C15.7285 3.90723 16.1524 4.08282 16.465 4.39538C16.7775 4.70794 16.9531 5.13187 16.9531 5.57389V12.2406C16.9531 12.6826 16.7775 13.1065 16.465 13.4191C16.1524 13.7316 15.7285 13.9072 15.2865 13.9072H8.61979C8.17776 13.9072 7.75384 13.7316 7.44128 13.4191C7.12872 13.1065 6.95312 12.6826 6.95312 12.2406V5.57389Z" stroke="#464255" stroke-width="2" stroke-linecap="round" stroke-linejoin="round"/>
<path d="M3.625 8.90788C3.625 8.46585 3.80059 8.04193 4.11316 7.72937C4.42572 7.41681 4.84964 7.24121 5.29167 7.24121H11.9583C12.4004 7.24121 12.8243 7.41681 13.1368 7.72937C13.4494 8.04193 13.625 8.46585 13.625 8.90788V15.5745C13.625 16.0166 13.4494 16.4405 13.1368 16.7531C12.8243 17.0656 12.4004 17.2412 11.9583 17.2412H5.29167C4.84964 17.2412 4.42572 17.0656 4.11316 16.7531C3.80059 16.4405 3.625 16.0166 3.625 15.5745V8.90788Z" stroke="#464255" stroke-width="2" stroke-linecap="round" stroke-linejoin="round"/>
</g>
<defs>
<clipPath id="clip0_172_10054">
<rect width="20" height="20" fill="white" transform="translate(0.289062 0.574219)"/>
</clipPath>
</defs>
</svg>
