<svg width="31" height="31" viewBox="0 0 31 31" fill="none" xmlns="http://www.w3.org/2000/svg">
<g clip-path="url(#clip0_176_6156)">
<path d="M19.0469 14.418H21.5469C22.2099 14.418 22.8458 14.6814 23.3146 15.1502C23.7835 15.619 24.0469 16.2549 24.0469 16.918V19.418M24.0469 24.418C24.0469 25.081 23.7835 25.7169 23.3146 26.1857C22.8458 26.6546 22.2099 26.918 21.5469 26.918H9.04688C8.38383 26.918 7.74795 26.6546 7.27911 26.1857C6.81027 25.7169 6.54688 25.081 6.54688 24.418V16.918C6.54688 16.2549 6.81027 15.619 7.27911 15.1502C7.74795 14.6814 8.38383 14.418 9.04688 14.418H14.0469" stroke="#00B074" stroke-width="2" stroke-linecap="round" stroke-linejoin="round"/>
<path d="M14.0469 20.668C14.0469 20.9995 14.1786 21.3174 14.413 21.5519C14.6474 21.7863 14.9654 21.918 15.2969 21.918C15.6284 21.918 15.9463 21.7863 16.1808 21.5519C16.4152 21.3174 16.5469 20.9995 16.5469 20.668C16.5469 20.3364 16.4152 20.0185 16.1808 19.7841C15.9463 19.5497 15.6284 19.418 15.2969 19.418C14.9654 19.418 14.6474 19.5497 14.413 19.7841C14.1786 20.0185 14.0469 20.3364 14.0469 20.668Z" stroke="#00B074" stroke-width="2" stroke-linecap="round" stroke-linejoin="round"/>
<path d="M10.2969 14.4178V10.6678M10.7306 6.12902C11.1973 5.083 12.0089 4.2289 13.0297 3.70956C14.0506 3.19021 15.2188 3.0371 16.3391 3.27584C17.4593 3.51459 18.4636 4.1307 19.184 5.02115C19.9044 5.9116 20.2973 7.02239 20.2969 8.16777" stroke="#00B074" stroke-width="2" stroke-linecap="round" stroke-linejoin="round"/>
<path d="M4.04688 4.41797L26.5469 26.918" stroke="#00B074" stroke-width="2" stroke-linecap="round" stroke-linejoin="round"/>
</g>
<defs>
<clipPath id="clip0_176_6156">
<rect width="30" height="30" fill="white" transform="translate(0.296875 0.667969)"/>
</clipPath>
</defs>
</svg>
