<svg width="21" height="21" viewBox="0 0 21 21" fill="none" xmlns="http://www.w3.org/2000/svg">
<g clip-path="url(#clip0_172_10043)">
<path d="M10.6916 17.7222C9.97323 17.9214 9.1099 17.5739 8.89323 16.6789C8.83996 16.459 8.73555 16.2549 8.58847 16.083C8.4414 15.9112 8.25582 15.7765 8.04685 15.6899C7.83788 15.6033 7.61142 15.5673 7.38591 15.5848C7.16039 15.6023 6.94219 15.6728 6.74906 15.7905C5.46323 16.5739 3.99073 15.1022 4.77406 13.8155C4.89165 13.6225 4.96202 13.4044 4.97947 13.1791C4.99691 12.9537 4.96093 12.7274 4.87446 12.5186C4.78798 12.3097 4.65345 12.1242 4.48179 11.9772C4.31013 11.8301 4.1062 11.7256 3.88656 11.6722C2.42323 11.3172 2.42323 9.23553 3.88656 8.88053C4.1064 8.82727 4.31055 8.72285 4.4824 8.57578C4.65425 8.4287 4.78894 8.24313 4.87552 8.03416C4.96209 7.82519 4.99811 7.59873 4.98062 7.37321C4.96314 7.1477 4.89265 6.92949 4.7749 6.73637C3.99156 5.45053 5.46323 3.97803 6.7499 4.76137C7.58323 5.26803 8.66323 4.8197 8.89323 3.87387C9.24823 2.41053 11.3299 2.41053 11.6849 3.87387C11.7382 4.0937 11.8426 4.29785 11.9897 4.4697C12.1367 4.64155 12.3223 4.77625 12.5313 4.86282C12.7402 4.9494 12.9667 4.98541 13.1922 4.96792C13.4177 4.95044 13.6359 4.87995 13.8291 4.7622C15.1149 3.97887 16.5874 5.45053 15.8041 6.7372C15.6865 6.93025 15.6161 7.14831 15.5987 7.37368C15.5812 7.59904 15.6172 7.82534 15.7037 8.03418C15.7901 8.24303 15.9247 8.42852 16.0963 8.57558C16.268 8.72264 16.4719 8.82712 16.6916 8.88053C17.5916 9.09887 17.9382 9.97053 17.7307 10.6914" stroke="#464255" stroke-width="2" stroke-linecap="round" stroke-linejoin="round"/>
<path d="M13.625 16.1094H18.625" stroke="#464255" stroke-width="2" stroke-linecap="round" stroke-linejoin="round"/>
<path d="M16.125 13.6094V18.6094" stroke="#464255" stroke-width="2" stroke-linecap="round" stroke-linejoin="round"/>
<path d="M7.78906 10.2764C7.78906 10.9394 8.05245 11.5753 8.5213 12.0441C8.99014 12.513 9.62602 12.7764 10.2891 12.7764C10.9521 12.7764 11.588 12.513 12.0568 12.0441C12.5257 11.5753 12.7891 10.9394 12.7891 10.2764C12.7891 9.61333 12.5257 8.97744 12.0568 8.5086C11.588 8.03976 10.9521 7.77637 10.2891 7.77637C9.62602 7.77637 8.99014 8.03976 8.5213 8.5086C8.05245 8.97744 7.78906 9.61333 7.78906 10.2764Z" stroke="#464255" stroke-width="2" stroke-linecap="round" stroke-linejoin="round"/>
</g>
<defs>
<clipPath id="clip0_172_10043">
<rect width="20" height="20" fill="white" transform="translate(0.289062 0.276367)"/>
</clipPath>
</defs>
</svg>
