<svg width="21" height="21" viewBox="0 0 21 21" fill="none" xmlns="http://www.w3.org/2000/svg">
<g clip-path="url(#clip0_154_4934)">
<path d="M4.94824 6.69076C4.94824 7.57481 5.29943 8.42266 5.92455 9.04778C6.54967 9.6729 7.39752 10.0241 8.28158 10.0241C9.16563 10.0241 10.0135 9.6729 10.6386 9.04778C11.2637 8.42266 11.6149 7.57481 11.6149 6.69076C11.6149 5.8067 11.2637 4.95885 10.6386 4.33373C10.0135 3.70861 9.16563 3.35742 8.28158 3.35742C7.39752 3.35742 6.54967 3.70861 5.92455 4.33373C5.29943 4.95885 4.94824 5.8067 4.94824 6.69076Z" stroke="#464255" stroke-width="2" stroke-linecap="round" stroke-linejoin="round"/>
<path d="M3.28125 18.3574V16.6908C3.28125 15.8067 3.63244 14.9589 4.25756 14.3337C4.88268 13.7086 5.73053 13.3574 6.61458 13.3574H9.94792C10.832 13.3574 11.6798 13.7086 12.3049 14.3337C12.9301 14.9589 13.2812 15.8067 13.2812 16.6908V18.3574" stroke="#464255" stroke-width="2" stroke-linecap="round" stroke-linejoin="round"/>
<path d="M14.1143 3.46582C14.8313 3.6494 15.4668 4.0664 15.9206 4.65108C16.3745 5.23575 16.6208 5.95485 16.6208 6.69499C16.6208 7.43513 16.3745 8.15422 15.9206 8.73889C15.4668 9.32357 14.8313 9.74057 14.1143 9.92415" stroke="#464255" stroke-width="2" stroke-linecap="round" stroke-linejoin="round"/>
<path d="M18.2812 18.3574V16.6908C18.277 15.9551 18.0295 15.2414 17.5773 14.6611C17.1251 14.0808 16.4936 13.6663 15.7812 13.4824" stroke="#464255" stroke-width="2" stroke-linecap="round" stroke-linejoin="round"/>
</g>
<defs>
<clipPath id="clip0_154_4934">
<rect width="20" height="20" fill="white" transform="translate(0.78125 0.857422)"/>
</clipPath>
</defs>
</svg>
