<svg width="21" height="21" viewBox="0 0 21 21" fill="none" xmlns="http://www.w3.org/2000/svg">
<g clip-path="url(#clip0_154_4945)">
<path d="M4.11426 6.77743C4.11426 5.89337 4.46545 5.04552 5.09057 4.4204C5.71569 3.79528 6.56354 3.44409 7.44759 3.44409H14.1143C14.9983 3.44409 15.8462 3.79528 16.4713 4.4204C17.0964 5.04552 17.4476 5.89337 17.4476 6.77743V13.4441C17.4476 14.3281 17.0964 15.176 16.4713 15.8011C15.8462 16.4262 14.9983 16.7774 14.1143 16.7774H7.44759C6.56354 16.7774 5.71569 16.4262 5.09057 15.8011C4.46545 15.176 4.11426 14.3281 4.11426 13.4441V6.77743Z" stroke="#464255" stroke-width="2" stroke-linecap="round" stroke-linejoin="round"/>
<path d="M8.28125 6.77759C8.28125 7.44063 8.54464 8.07651 9.01348 8.54536C9.48232 9.0142 10.1182 9.27759 10.7812 9.27759C11.4443 9.27759 12.0802 9.0142 12.549 8.54536C13.0179 8.07651 13.2812 7.44063 13.2812 6.77759" stroke="#464255" stroke-width="2" stroke-linecap="round" stroke-linejoin="round"/>
</g>
<defs>
<clipPath id="clip0_154_4945">
<rect width="20" height="20" fill="white" transform="translate(0.78125 0.11084)"/>
</clipPath>
</defs>
</svg>
