<svg width="21" height="21" viewBox="0 0 21 21" fill="none" xmlns="http://www.w3.org/2000/svg">
<g clip-path="url(#clip0_148_3195)">
<path d="M8.75977 10.5918H8.7681" stroke="#464255" stroke-width="2" stroke-linecap="round" stroke-linejoin="round"/>
<path d="M12.0918 10.5918H12.1001" stroke="#464255" stroke-width="2" stroke-linecap="round" stroke-linejoin="round"/>
<path d="M8.75977 13.925C9.24883 14.2656 9.83048 14.4481 10.4264 14.4481C11.0224 14.4481 11.604 14.2656 12.0931 13.925" stroke="#464255" stroke-width="2" stroke-linecap="round" stroke-linejoin="round"/>
<path d="M9.59323 3.92507C11.2599 3.92507 12.5099 5.17507 12.5099 7.2584H12.6466C12.967 7.27944 13.2783 7.37429 13.556 7.53554C13.8338 7.69678 14.0705 7.92006 14.2477 8.18792C14.4248 8.45578 14.5377 8.76098 14.5774 9.07967C14.6171 9.39836 14.5826 9.72192 14.4766 10.0251C14.9372 10.2593 15.3139 10.6304 15.5549 11.0875C15.7959 11.5446 15.8894 12.0652 15.8224 12.5776C16.2924 12.843 16.6639 13.2535 16.8813 13.7475C17.0987 14.2416 17.1503 14.7928 17.0285 15.3186C16.9066 15.8445 16.6179 16.3168 16.2054 16.6649C15.7929 17.0131 15.2787 17.2183 14.7399 17.2501H14.5932H6.25989C5.7074 17.2501 5.17046 17.0671 4.73297 16.7297C4.29548 16.3923 3.98208 15.9194 3.84175 15.385C3.70142 14.8507 3.74206 14.2849 3.95732 13.776C4.17258 13.2672 4.55034 12.844 5.03156 12.5726C4.96477 12.0603 5.0583 11.54 5.2993 11.083C5.5403 10.6261 5.91692 10.2551 6.37739 10.0209C6.27138 9.71781 6.23685 9.39432 6.27651 9.07569C6.31618 8.75706 6.42895 8.45191 6.60604 8.18406C6.78312 7.91622 7.01972 7.69293 7.29736 7.53163C7.575 7.37034 7.88617 7.2754 8.20656 7.25423H8.34323C9.59323 7.25423 10.4266 5.58757 9.59323 3.9209V3.92507Z" stroke="#464255" stroke-width="2" stroke-linecap="round" stroke-linejoin="round"/>
</g>
<defs>
<clipPath id="clip0_148_3195">
<rect width="20" height="20" fill="white" transform="translate(0.425781 0.591797)"/>
</clipPath>
</defs>
</svg>
