<svg width="29" height="29" viewBox="0 0 29 29" fill="none" xmlns="http://www.w3.org/2000/svg">
<path d="M4.82292 24.2788H11.8229C11.8229 24.8976 12.0687 25.4911 12.5063 25.9287C12.9439 26.3663 13.5374 26.6121 14.1562 26.6121C14.7751 26.6121 15.3686 26.3663 15.8062 25.9287C16.2437 25.4911 16.4896 24.8976 16.4896 24.2788H23.4896C23.799 24.2788 24.0957 24.1559 24.3145 23.9371C24.5333 23.7183 24.6562 23.4216 24.6562 23.1121C24.6562 22.8027 24.5333 22.506 24.3145 22.2872C24.0957 22.0684 23.799 21.9455 23.4896 21.9455V13.7788C23.4896 11.3034 22.5063 8.92948 20.7559 7.17914C19.0056 5.4288 16.6316 4.44547 14.1562 4.44547C11.6809 4.44547 9.30693 5.4288 7.55659 7.17914C5.80625 8.92948 4.82292 11.3034 4.82292 13.7788V21.9455C4.5135 21.9455 4.21675 22.0684 3.99796 22.2872C3.77917 22.506 3.65625 22.8027 3.65625 23.1121C3.65625 23.4216 3.77917 23.7183 3.99796 23.9371C4.21675 24.1559 4.5135 24.2788 4.82292 24.2788V24.2788ZM7.15625 13.7788C7.15625 11.9223 7.89375 10.1418 9.2065 8.82905C10.5193 7.5163 12.2997 6.7788 14.1562 6.7788C16.0128 6.7788 17.7932 7.5163 19.106 8.82905C20.4188 10.1418 21.1562 11.9223 21.1562 13.7788V21.9455H7.15625V13.7788Z" fill="#2D9CDB"/>
</svg>
