<svg width="21" height="21" viewBox="0 0 21 21" fill="none" xmlns="http://www.w3.org/2000/svg">
<path d="M2.78906 7.47988V17.4799C2.78906 17.7009 2.87686 17.9129 3.03314 18.0691C3.18942 18.2254 3.40138 18.3132 3.6224 18.3132H7.78906C8.01008 18.3132 8.22204 18.2254 8.37832 18.0691C8.5346 17.9129 8.6224 17.7009 8.6224 17.4799V11.6465H11.9557V17.4799C11.9557 17.7009 12.0435 17.9129 12.1998 18.0691C12.3561 18.2254 12.568 18.3132 12.7891 18.3132H16.9557C17.1767 18.3132 17.3887 18.2254 17.545 18.0691C17.7013 17.9129 17.7891 17.7009 17.7891 17.4799V7.47988C17.7891 7.35051 17.7589 7.22291 17.7011 7.1072C17.6432 6.99149 17.5592 6.89084 17.4557 6.81321L10.7891 1.81321C10.6448 1.70503 10.4694 1.64655 10.2891 1.64655C10.1088 1.64655 9.93331 1.70503 9.78906 1.81321L3.1224 6.81321C3.0189 6.89084 2.9349 6.99149 2.87704 7.1072C2.81918 7.22291 2.78906 7.35051 2.78906 7.47988V7.47988ZM4.45573 7.89655L10.2891 3.52155L16.1224 7.89655V16.6465H13.6224V10.8132C13.6224 10.5922 13.5346 10.3802 13.3783 10.224C13.222 10.0677 13.0101 9.97988 12.7891 9.97988H7.78906C7.56805 9.97988 7.35609 10.0677 7.19981 10.224C7.04353 10.3802 6.95573 10.5922 6.95573 10.8132V16.6465H4.45573V7.89655Z" fill="#464255"/>
</svg>
