<svg width="21" height="21" viewBox="0 0 21 21" fill="none" xmlns="http://www.w3.org/2000/svg">
<mask id="mask0_67_581" style="mask-type:alpha" maskUnits="userSpaceOnUse" x="0" y="0" width="21" height="21">
<rect x="0.84375" y="0.829102" width="19.647" height="20.0468" fill="#D9D9D9"/>
</mask>
<g mask="url(#mask0_67_581)">
<path d="M6.8297 17.9523C6.42144 17.9523 6.07274 17.8048 5.7836 17.5097C5.49445 17.2147 5.34988 16.8589 5.34988 16.4423V5.84068H4.53125V4.58777H8.21504V3.84888H13.1268V4.58777H16.8106V5.84068H15.992V16.4423C15.992 16.8643 15.8487 17.2214 15.5622 17.5138C15.2757 17.8061 14.9257 17.9523 14.5121 17.9523H6.8297ZM14.7641 5.84068H6.57779V16.4423C6.57779 16.5173 6.60141 16.5789 6.64865 16.6271C6.69588 16.6753 6.75623 16.6994 6.8297 16.6994H14.5121C14.5751 16.6994 14.6329 16.6726 14.6853 16.6191C14.7378 16.5655 14.7641 16.5066 14.7641 16.4423V5.84068ZM8.54567 15.0288H9.77359V7.51125H8.54567V15.0288ZM11.5683 15.0288H12.7962V7.51125H11.5683V15.0288Z" fill="#CC1414"/>
</g>
</svg>
