<svg width="19" height="19" viewBox="0 0 19 19" fill="none" xmlns="http://www.w3.org/2000/svg">
<mask id="mask0_67_578" style="mask-type:alpha" maskUnits="userSpaceOnUse" x="0" y="0" width="19" height="19">
<rect x="0.351562" y="0.0799561" width="18.1333" height="18.5023" fill="#D9D9D9"/>
</mask>
<g mask="url(#mask0_67_578)">
<path d="M1.85938 18.5823V16.2696H16.9704V18.5823H1.85938ZM4.88158 12.7337H5.81584L12.087 6.34679L11.6118 5.85457L11.1411 5.38164L4.88158 11.7804V12.7337ZM3.74828 13.89V11.2882L12.2177 2.65822C12.3272 2.54654 12.4514 2.46204 12.5904 2.40472C12.7294 2.34739 12.874 2.31873 13.0243 2.31873C13.1745 2.31873 13.32 2.34739 13.4609 2.40472C13.6017 2.46204 13.7307 2.5505 13.848 2.6701L14.7561 3.60855C14.8733 3.72023 14.958 3.84813 15.0103 3.99224C15.0626 4.13636 15.0888 4.28529 15.0888 4.43901C15.0888 4.58314 15.0623 4.7265 15.0092 4.86911C14.9562 5.01172 14.8718 5.14204 14.7561 5.26007L6.29823 13.89H3.74828ZM12.087 6.34679L11.6118 5.85457L11.1411 5.38164L12.087 6.34679Z" fill="#4B4B4B"/>
</g>
</svg>
