<svg width="29" height="29" viewBox="0 0 29 29" fill="none" xmlns="http://www.w3.org/2000/svg">
<path d="M14.1589 14.9452C14.8032 14.9452 15.3255 14.4229 15.3255 13.7785C15.3255 13.1342 14.8032 12.6119 14.1589 12.6119C13.5145 12.6119 12.9922 13.1342 12.9922 13.7785C12.9922 14.4229 13.5145 14.9452 14.1589 14.9452Z" fill="#2D9CDB"/>
<path d="M9.48698 14.9452C10.1313 14.9452 10.6536 14.4229 10.6536 13.7785C10.6536 13.1342 10.1313 12.6119 9.48698 12.6119C8.84265 12.6119 8.32031 13.1342 8.32031 13.7785C8.32031 14.4229 8.84265 14.9452 9.48698 14.9452Z" fill="#2D9CDB"/>
<path d="M18.8229 14.9452C19.4673 14.9452 19.9896 14.4229 19.9896 13.7785C19.9896 13.1342 19.4673 12.6119 18.8229 12.6119C18.1786 12.6119 17.6562 13.1342 17.6562 13.7785C17.6562 14.4229 18.1786 14.9452 18.8229 14.9452Z" fill="#2D9CDB"/>
<path d="M3.71727 26.4605C3.96146 26.5612 4.22313 26.6127 4.48727 26.6121C4.74778 26.6134 5.0059 26.5625 5.24637 26.4623C5.48683 26.3621 5.70477 26.2147 5.88727 26.0288L8.80394 23.1121H19.9923C21.5394 23.1121 23.0231 22.4976 24.1171 21.4036C25.211 20.3096 25.8256 18.8259 25.8256 17.2788V10.2788C25.8256 8.7317 25.211 7.24797 24.1171 6.15401C23.0231 5.06005 21.5394 4.44547 19.9923 4.44547H8.32561C6.77851 4.44547 5.29478 5.06005 4.20082 6.15401C3.10686 7.24797 2.49227 8.7317 2.49227 10.2788V24.6171C2.48858 25.0117 2.60334 25.3983 2.82173 25.7269C3.04012 26.0555 3.35208 26.3111 3.71727 26.4605ZM4.82561 10.2788C4.82561 9.35054 5.19436 8.4603 5.85073 7.80393C6.50711 7.14755 7.39735 6.7788 8.32561 6.7788H19.9923C20.9205 6.7788 21.8108 7.14755 22.4671 7.80393C23.1235 8.4603 23.4923 9.35054 23.4923 10.2788V17.2788C23.4923 18.2071 23.1235 19.0973 22.4671 19.7537C21.8108 20.4101 20.9205 20.7788 19.9923 20.7788H8.32561C8.17207 20.7779 8.01986 20.8073 7.87772 20.8654C7.73557 20.9235 7.60629 21.009 7.49727 21.1171L4.82561 23.8005V10.2788Z" fill="#2D9CDB"/>
</svg>
