<svg width="29" height="29" viewBox="0 0 29 29" fill="none" xmlns="http://www.w3.org/2000/svg">
<path d="M14.1562 10.5705C13.291 10.5705 12.4451 10.8271 11.7256 11.3078C11.0062 11.7885 10.4454 12.4718 10.1143 13.2712C9.78315 14.0706 9.69651 14.9503 9.86532 15.799C10.0341 16.6476 10.4508 17.4272 11.0627 18.039C11.6745 18.6509 12.4541 19.0676 13.3027 19.2364C14.1514 19.4052 15.0311 19.3186 15.8305 18.9874C16.6299 18.6563 17.3132 18.0955 17.7939 17.3761C18.2746 16.6566 18.5312 15.8108 18.5312 14.9455C18.5299 13.7856 18.0685 12.6736 17.2483 11.8534C16.4281 11.0332 15.3161 10.5718 14.1562 10.5705V10.5705ZM14.1562 17.5705C13.6371 17.5705 13.1296 17.4165 12.6979 17.1281C12.2662 16.8396 11.9297 16.4297 11.7311 15.95C11.5324 15.4703 11.4804 14.9425 11.5817 14.4333C11.683 13.9241 11.933 13.4564 12.3001 13.0893C12.6672 12.7222 13.1349 12.4722 13.6441 12.3709C14.1533 12.2696 14.6811 12.3216 15.1608 12.5203C15.6404 12.719 16.0504 13.0554 16.3388 13.4871C16.6273 13.9188 16.7812 14.4263 16.7812 14.9455C16.7805 15.6414 16.5037 16.3087 16.0116 16.8008C15.5194 17.2929 14.8522 17.5697 14.1562 17.5705V17.5705Z" fill="#FF5B5B"/>
<path d="M5.64263 9.50529C5.21237 9.34364 4.73611 9.3557 4.31458 9.53892C3.89306 9.72214 3.55934 10.0621 3.38402 10.487C3.2087 10.9119 3.20553 11.3883 3.37517 11.8155C3.54482 12.2426 3.87398 12.587 4.29303 12.7759C4.71933 12.9562 5.08306 13.2581 5.33878 13.6439C5.5945 14.0297 5.73088 14.4823 5.73088 14.9452C5.73088 15.4081 5.5945 15.8607 5.33878 16.2465C5.08306 16.6323 4.71933 16.9342 4.29303 17.1146C3.87388 17.3034 3.54464 17.6479 3.37497 18.0751C3.2053 18.5024 3.20851 18.9789 3.38393 19.4038C3.55934 19.8287 3.8932 20.1687 4.31485 20.3519C4.7365 20.535 5.21287 20.547 5.64315 20.3851C6.07253 20.2103 6.54396 20.166 6.99838 20.2578C7.45281 20.3497 7.87003 20.5736 8.19778 20.9015C8.52552 21.2294 8.74923 21.6467 8.84086 22.1012C8.9325 22.5557 8.88799 23.0271 8.71292 23.4564C8.54603 23.8878 8.55639 24.3677 8.74174 24.7915C8.92708 25.2153 9.2724 25.5487 9.70245 25.719C9.91782 25.8082 10.1486 25.854 10.3817 25.854C10.7222 25.8564 11.0559 25.7583 11.3408 25.5718C11.6258 25.3854 11.8493 25.119 11.9835 24.806C12.1638 24.3797 12.4657 24.0159 12.8515 23.7602C13.2374 23.5045 13.69 23.3681 14.1528 23.3681C14.6157 23.3681 15.0683 23.5045 15.4541 23.7602C15.8399 24.0159 16.1419 24.3797 16.3222 24.806C16.511 25.2251 16.8555 25.5544 17.2827 25.724C17.71 25.8937 18.1865 25.8905 18.6114 25.7151C19.0364 25.5397 19.3764 25.2058 19.5595 24.7842C19.7427 24.3625 19.7546 23.8861 19.5928 23.4558C19.4179 23.0265 19.3736 22.555 19.4655 22.1006C19.5573 21.6462 19.7812 21.229 20.1091 20.9012C20.437 20.5735 20.8544 20.3498 21.3088 20.2581C21.7633 20.1665 22.2347 20.211 22.664 20.3861C23.0927 20.5525 23.5697 20.5436 23.9919 20.3612C24.4141 20.1789 24.7476 19.8377 24.9203 19.4115L24.1179 19.0629L23.3217 18.7647C22.5738 18.4592 21.7523 18.3816 20.9605 18.5417C20.1687 18.7018 19.4419 19.0924 18.8715 19.6645C18.3015 20.239 17.9099 20.9662 17.7439 21.7583C17.5779 22.5504 17.6445 23.3736 17.9358 24.1287C17.6237 23.3835 17.0979 22.7474 16.4248 22.3005C15.7517 21.8537 14.9613 21.6161 14.1534 21.6177C13.3437 21.6202 12.5521 21.8574 11.8743 22.3004C11.1966 22.7435 10.6618 23.3734 10.3346 24.1141C10.64 23.3662 10.7174 22.5448 10.5574 21.753C10.3973 20.9613 10.0068 20.2345 9.43488 19.6639C8.86026 19.0941 8.1331 18.7025 7.34101 18.5365C6.54893 18.3705 5.72573 18.437 4.97063 18.7282C5.71582 18.416 6.35189 17.8902 6.79866 17.217C7.24542 16.5438 7.48288 15.7534 7.48109 14.9454C7.47858 14.1357 7.24146 13.3441 6.79841 12.6664C6.35536 11.9886 5.72539 11.4538 4.98472 11.1267C5.73256 11.4322 6.55403 11.5098 7.34584 11.3497C8.13766 11.1896 8.86447 10.7989 9.43488 10.2269C10.0049 9.65233 10.3965 8.92516 10.5625 8.13306C10.7285 7.34096 10.6619 6.51774 10.3706 5.76265C10.6828 6.50784 11.2087 7.14391 11.8819 7.59068C12.5551 8.03744 13.3455 8.2749 14.1534 8.27311C14.9631 8.27061 15.7547 8.03348 16.4325 7.59043C17.1102 7.14739 17.645 6.51741 17.9722 5.77674C17.6668 6.52461 17.5894 7.34604 17.7494 8.13781C17.9095 8.92958 18.3 9.65639 18.8719 10.2269C19.4467 10.7966 20.1738 11.188 20.9659 11.354C21.7579 11.52 22.581 11.4536 23.3362 11.1626C22.5946 11.4742 21.9611 11.9971 21.5147 12.6663C21.0683 13.3354 20.8287 14.1211 20.8257 14.9255C20.8228 15.7299 21.0567 16.5173 21.4983 17.1897C21.9399 17.862 22.5696 18.3895 23.3089 18.7064C23.3113 18.7136 23.3113 18.7215 23.3089 18.7287L24.1176 19.0624L24.9217 19.4071L24.9264 19.396C25.105 18.9723 25.1094 18.4952 24.9386 18.0683C24.7677 17.6413 24.4354 17.299 24.0138 17.1154C23.5875 16.9351 23.2237 16.6332 22.968 16.2474C22.7123 15.8616 22.5759 15.409 22.5759 14.9461C22.5759 14.4832 22.7123 14.0306 22.968 13.6448C23.2237 13.259 23.5875 12.9571 24.0138 12.7767C24.4329 12.5879 24.7622 12.2434 24.9318 11.8162C25.1015 11.3889 25.0983 10.9124 24.9229 10.4875C24.7475 10.0626 24.4136 9.72255 23.992 9.5394C23.5703 9.35625 23.0939 9.34433 22.6637 9.50616C22.2343 9.68103 21.7629 9.72531 21.3084 9.63345C20.854 9.5416 20.4368 9.31769 20.109 8.98979C19.7813 8.66188 19.5576 8.24455 19.4659 7.79008C19.3743 7.33561 19.4188 6.8642 19.5939 6.43491C19.7557 6.00465 19.7437 5.52832 19.5605 5.10672C19.3774 4.68512 19.0373 4.35132 18.6124 4.17595C18.1875 4.00057 17.7111 3.99738 17.2839 4.16705C16.8566 4.33672 16.5122 4.66594 16.3234 5.08505C16.1431 5.51136 15.8412 5.87508 15.4554 6.13081C15.0695 6.38653 14.6169 6.5229 14.1541 6.5229C13.6912 6.5229 13.2386 6.38653 12.8528 6.13081C12.4669 5.87508 12.165 5.51136 11.9847 5.08505C11.7959 4.66591 11.4514 4.33666 11.0242 4.16699C10.5969 3.99732 10.1204 4.00053 9.69547 4.17595C9.27054 4.35136 8.93053 4.68522 8.74738 5.10687C8.56423 5.52852 8.55231 6.00489 8.71414 6.43518C8.88901 6.86455 8.93329 7.33598 8.84143 7.79041C8.74958 8.24483 8.52567 8.66205 8.19776 8.9898C7.86986 9.31755 7.45253 9.54125 6.99806 9.63288C6.54359 9.72452 6.07218 9.68001 5.64289 9.50494L5.64263 9.50529Z" fill="#FF5B5B"/>
</svg>
