<svg width="25" height="25" viewBox="0 0 25 25" fill="none" xmlns="http://www.w3.org/2000/svg">
<path d="M24.4746 23.7436L18.6423 17.9112C20.2068 16.1125 21.154 13.7658 21.154 11.2008C21.154 5.55467 16.5616 0.967529 10.9208 0.967529C5.27464 0.967529 0.6875 5.55999 0.6875 11.2008C0.6875 16.8416 5.27996 21.434 10.9208 21.434C13.4857 21.434 15.8325 20.4868 17.6312 18.9223L23.4636 24.7547C23.6019 24.893 23.7882 24.9675 23.9691 24.9675C24.15 24.9675 24.3363 24.8983 24.4746 24.7547C24.7514 24.478 24.7514 24.0203 24.4746 23.7436ZM2.11899 11.2008C2.11899 6.34757 6.06754 2.40434 10.9154 2.40434C15.7687 2.40434 19.7119 6.3529 19.7119 11.2008C19.7119 16.0487 15.7687 20.0026 10.9154 20.0026C6.06754 20.0026 2.11899 16.054 2.11899 11.2008Z" fill="#A4A4A4"/>
</svg>
