<svg width="59" height="55" viewBox="0 0 59 55" fill="none" xmlns="http://www.w3.org/2000/svg">
<path d="M29.1646 11.9955C28.5709 11.9955 28.1044 11.5252 28.1044 10.9266V8.23304C28.1044 5.32565 25.7719 2.97409 22.9305 2.97409C21.531 2.97409 20.2587 3.52991 19.2409 4.51329C18.2231 5.49667 17.7142 6.8221 17.7142 8.23304V10.9266C17.7142 11.5252 17.2477 11.9955 16.654 11.9955C16.0602 11.9955 15.5938 11.5252 15.5938 10.9266V8.23304C15.5938 6.26627 16.3571 4.42778 17.7142 3.01684C19.1137 1.60591 20.9373 0.836304 22.8881 0.836304C26.9169 0.836304 30.1824 4.12849 30.1824 8.19028V10.8839C30.2249 11.5252 29.7584 11.9955 29.1646 11.9955Z" fill="#FFD497"/>
<path d="M45.8289 48.0387H14.9127L9.78125 8.10486H43.666L45.8289 48.0387Z" fill="#00B074"/>
<path d="M14.9112 48.0387L7.57449 46.756L0.195312 48.0387L2.40059 8.10486H12.706L14.9112 48.0387Z" fill="#0A5239"/>
<path d="M28.3569 21.8721C24.328 21.8721 21.0625 18.5799 21.0625 14.5181V11.8245C21.0625 11.226 21.529 10.7556 22.1227 10.7556C22.7165 10.7556 23.183 11.226 23.183 11.8245V14.5181C23.183 17.4255 25.5155 19.7343 28.3569 19.7343C31.1983 19.7343 33.5732 17.3828 33.5732 14.4754V11.7818C33.5732 11.1832 34.0397 10.7129 34.6334 10.7129C35.2271 10.7129 35.6936 11.1832 35.6936 11.7818V14.4754C35.6936 18.5799 32.4281 21.8721 28.3569 21.8721Z" fill="white"/>
<path opacity="0.1" d="M30.2656 42.5659C30.2656 44.5326 30.7745 46.4139 31.6651 48.0386H45.8721L44.9816 31.6204C43.9213 31.2784 42.8187 31.1074 41.6736 31.1074C35.3547 31.1074 30.2656 36.238 30.2656 42.5659Z" fill="#0C1E5B"/>
<path d="M47.5687 54.0244C53.8458 54.0244 58.9343 48.8942 58.9343 42.5659C58.9343 36.2375 53.8458 31.1074 47.5687 31.1074C41.2917 31.1074 36.2031 36.2375 36.2031 42.5659C36.2031 48.8942 41.2917 54.0244 47.5687 54.0244Z" fill="#FF6966"/>
<path d="M46.3771 47.0126C46.0378 47.0126 45.7409 46.8843 45.4864 46.6278L41.8817 42.9936C41.3728 42.4805 41.3728 41.6681 41.8817 41.1978C42.3906 40.6848 43.1964 40.6848 43.6629 41.1978L46.3771 43.9342L51.4661 38.8035C51.975 38.2904 52.7808 38.2904 53.2473 38.8035C53.7562 39.3166 53.7562 40.1289 53.2473 40.5992L47.2676 46.6278C47.0132 46.8843 46.6739 47.0126 46.3771 47.0126Z" fill="white"/>
</svg>
