<svg width="60" height="44" viewBox="0 0 60 44" fill="none" xmlns="http://www.w3.org/2000/svg">
<path d="M6.61719 43.3181C9.78406 43.3181 12.3716 40.7062 12.3716 37.5095V0.0844727H45.9714V37.5095C45.9714 40.7062 43.3838 43.3181 40.217 43.3181" fill="#00B074"/>
<path d="M34.4592 37.5094V33.1041H0.859375V37.5094C0.859375 40.7061 3.44695 43.318 6.61382 43.318H40.2136C37.0467 43.318 34.4592 40.7061 34.4592 37.5094Z" fill="#0A5239"/>
<path d="M22.6775 7.53027H18.3906V9.40152H22.6775V7.53027Z" fill="white"/>
<path d="M39.1696 7.53027H26V9.40152H39.1696V7.53027Z" fill="#F7C604"/>
<path d="M22.6775 14.1576H18.3906V16.0288H22.6775V14.1576Z" fill="white"/>
<path d="M39.1696 14.1576H26V16.0288H39.1696V14.1576Z" fill="#F7C604"/>
<path d="M22.6775 20.7852H18.3906V22.6564H22.6775V20.7852Z" fill="white"/>
<path d="M39.1696 20.7852H26V22.6564H39.1696V20.7852Z" fill="#F7C604"/>
<path d="M22.6775 27.4125H18.3906V29.2837H22.6775V27.4125Z" fill="white"/>
<path d="M39.1696 27.4125H26V29.2837H39.1696V27.4125Z" fill="#F7C604"/>
<path opacity="0.1" d="M45.9653 27.7244V5.46436C45.5018 5.3864 44.9997 5.34741 44.4977 5.34741C38.357 5.34741 33.375 10.3764 33.375 16.5749C33.375 22.7734 38.357 27.8024 44.4977 27.8024C44.9997 27.8414 45.5018 27.8024 45.9653 27.7244Z" fill="#0C1E5B"/>
<path d="M48.404 25.5805C54.547 25.5805 59.5268 20.5538 59.5268 14.3529C59.5268 8.15208 54.547 3.12531 48.404 3.12531C42.2611 3.12531 37.2812 8.15208 37.2812 14.3529C37.2812 20.5538 42.2611 25.5805 48.404 25.5805Z" fill="#FF5B5B"/>
<path d="M50.3702 15.1324V8.15417H46.4309V15.1324H43.8047L48.4005 20.5512L52.9963 15.1324H50.3702Z" fill="white"/>
</svg>
