<svg width="60" height="44" viewBox="0 0 60 44" fill="none" xmlns="http://www.w3.org/2000/svg">
<path d="M6.38281 43.5003C9.54969 43.5003 12.1373 40.8883 12.1373 37.6916V0.266602H45.737V37.6916C45.737 40.8883 43.1495 43.5003 39.9826 43.5003" fill="#00B074"/>
<path d="M34.2248 37.6915V33.2863H0.625V37.6915C0.625 40.8882 3.21257 43.5002 6.37945 43.5002H39.9792C36.8123 43.5002 34.2248 40.8882 34.2248 37.6915Z" fill="#0A5239"/>
<path d="M22.4431 7.7124H18.1562V9.58365H22.4431V7.7124Z" fill="#F7C604"/>
<path d="M38.9352 7.7124H25.7656V9.58365H38.9352V7.7124Z" fill="#F3F2F7"/>
<path d="M22.4431 14.3397H18.1562V16.211H22.4431V14.3397Z" fill="#F7C604"/>
<path d="M38.9352 14.3397H25.7656V16.211H38.9352V14.3397Z" fill="#F3F2F7"/>
<path d="M22.4431 20.9673H18.1562V22.8385H22.4431V20.9673Z" fill="#F7C604"/>
<path d="M38.9352 20.9673H25.7656V22.8385H38.9352V20.9673Z" fill="#F3F2F7"/>
<path d="M22.4431 27.5946H18.1562V29.4659H22.4431V27.5946Z" fill="#F7C604"/>
<path d="M38.9352 27.5946H25.7656V29.4659H38.9352V27.5946Z" fill="#F3F2F7"/>
<path opacity="0.1" d="M45.7309 27.9066V5.64649C45.2674 5.56853 44.7654 5.52954 44.2633 5.52954C38.1227 5.52954 33.1406 10.5585 33.1406 16.757C33.1406 22.9556 38.1227 27.9845 44.2633 27.9845C44.7654 28.0235 45.2674 27.9845 45.7309 27.9066Z" fill="#0C1E5B"/>
<path d="M48.1697 25.7627C54.3126 25.7627 59.2925 20.7359 59.2925 14.5351C59.2925 8.33421 54.3126 3.30743 48.1697 3.30743C42.0267 3.30743 37.0469 8.33421 37.0469 14.5351C37.0469 20.7359 42.0267 25.7627 48.1697 25.7627Z" fill="#FF5B5B"/>
<path d="M52.5328 9.95636L43.4531 19.1102M43.4531 9.95636L52.5328 19.1102" stroke="white" stroke-width="4"/>
<path d="M52.5328 9.95636L43.4531 19.1102M43.4531 9.95636L52.5328 19.1102" stroke="white" stroke-width="4"/>
</svg>
