<svg width="60" height="47" viewBox="0 0 60 47" fill="none" xmlns="http://www.w3.org/2000/svg">
<path d="M23.6995 0.488831L0.382812 10.1072L23.6995 19.7256L47.0162 10.1072L23.6995 0.488831Z" fill="#00B074"/>
<path d="M14.2323 4.41302L9.84375 6.18281L33.1605 15.8397L37.5109 14.0314L14.2323 4.41302Z" fill="#F7C604"/>
<path d="M0.382812 10.1072V36.6155L23.6995 46.2339V19.7256L0.382812 10.1072Z" fill="#0A5239"/>
<path d="M47.0198 10.1072V36.6155L23.7031 46.2339V19.7256L47.0198 10.1072Z" fill="#00D68D"/>
<path opacity="0.1" d="M47.0137 23.6499C46.3268 23.496 45.6399 23.4191 44.9148 23.4191C39.2669 23.4191 34.6875 28.0359 34.6875 33.73C34.6875 36.3846 35.6797 38.8085 37.3206 40.6167L47.0137 36.6155V23.6499Z" fill="#0C1E5B"/>
<path d="M33.1641 15.8397V26.9585L37.5145 25.1503V14.0314L33.1641 15.8397Z" fill="#F7C604"/>
<path d="M49.0789 43.2713C54.7272 43.2713 59.3062 38.655 59.3062 32.9604C59.3062 27.2659 54.7272 22.6495 49.0789 22.6495C43.4305 22.6495 38.8516 27.2659 38.8516 32.9604C38.8516 38.655 43.4305 43.2713 49.0789 43.2713Z" fill="#FF5B5B"/>
<path d="M48.0058 36.9617C47.7005 36.9617 47.4333 36.8463 47.2044 36.6154L43.9606 33.3452C43.5027 32.8835 43.5027 32.1525 43.9606 31.7293C44.4186 31.2676 45.1437 31.2676 45.5634 31.7293L48.0058 34.1916L52.5852 29.5748C53.0431 29.1131 53.7682 29.1131 54.1879 29.5748C54.6459 30.0365 54.6459 30.7675 54.1879 31.1907L48.8072 36.6154C48.5782 36.8463 48.3111 36.9617 48.0058 36.9617Z" fill="white"/>
<path d="M7.93937 33.0375L5.4207 27.8051L3.05469 30.9214L4.35218 31.4985V34.8842L6.45107 35.846V32.4219L7.93937 33.0375Z" fill="#F2F5F3"/>
</svg>
