<svg width="22" height="15" viewBox="0 0 22 15" fill="none" xmlns="http://www.w3.org/2000/svg">
<path d="M11.0735 11.4942C12.2075 11.4942 13.1706 11.0893 13.9629 10.2793C14.7552 9.46937 15.1513 8.48586 15.1513 7.32879C15.1513 6.17175 14.7544 5.18902 13.9606 4.38061C13.1668 3.5722 12.2029 3.168 11.069 3.168C9.93499 3.168 8.97187 3.57297 8.17958 4.38291C7.3873 5.19287 6.99115 6.17638 6.99115 7.33344C6.99115 8.49049 7.38805 9.47321 8.18183 10.2816C8.97564 11.09 9.93953 11.4942 11.0735 11.4942ZM11.0712 10.0882C10.3207 10.0882 9.68266 9.82016 9.15724 9.28406C8.63183 8.74796 8.36913 8.09698 8.36913 7.33112C8.36913 6.56526 8.63183 5.91427 9.15724 5.37817C9.68266 4.84207 10.3207 4.57402 11.0712 4.57402C11.8218 4.57402 12.4598 4.84207 12.9852 5.37817C13.5106 5.91427 13.7734 6.56526 13.7734 7.33112C13.7734 8.09698 13.5106 8.74796 12.9852 9.28406C12.4598 9.82016 11.8218 10.0882 11.0712 10.0882ZM11.0726 14.4791C8.7712 14.4791 6.67424 13.8314 4.78173 12.536C2.88923 11.2406 1.49584 9.50563 0.601562 7.33112C1.49584 5.1566 2.88878 3.42163 4.78038 2.12622C6.67195 0.830812 8.76845 0.183105 11.0699 0.183105C13.3713 0.183105 15.4682 0.830812 17.3608 2.12622C19.2532 3.42163 20.6466 5.1566 21.5409 7.33112C20.6466 9.50563 19.2537 11.2406 17.3621 12.536C15.4705 13.8314 13.374 14.4791 11.0726 14.4791ZM11.0712 12.9474C12.956 12.9474 14.6866 12.4411 16.2628 11.4285C17.839 10.4158 19.0441 9.05005 19.8781 7.33112C19.0441 5.61218 17.839 4.2464 16.2628 3.23376C14.6866 2.22112 12.956 1.7148 11.0712 1.7148C9.18643 1.7148 7.45592 2.22112 5.87968 3.23376C4.30345 4.2464 3.09835 5.61218 2.26436 7.33112C3.09835 9.05005 4.30345 10.4158 5.87968 11.4285C7.45592 12.4411 9.18643 12.9474 11.0712 12.9474Z" fill="#665E5E"/>
</svg>
