<svg width="21" height="21" viewBox="0 0 21 21" fill="none" xmlns="http://www.w3.org/2000/svg">
<path d="M20.4678 15.875C20.5993 16.0905 20.6209 16.34 20.5278 16.5686C20.4347 16.7972 20.2344 16.9862 19.9711 17.0941L11.0818 20.7305C10.9276 20.7936 10.7576 20.8264 10.5851 20.8264C10.4127 20.8264 10.2427 20.7936 10.0885 20.7305L1.19922 17.0941C0.945068 16.982 0.754248 16.7933 0.667182 16.568C0.580115 16.3428 0.603639 16.0986 0.732773 15.8873C0.861906 15.676 1.0865 15.5141 1.35899 15.436C1.63148 15.3578 1.93046 15.3695 2.19259 15.4686L10.5851 18.8996L18.9788 15.4677C19.2423 15.36 19.5472 15.3424 19.8266 15.4185C20.106 15.4947 20.337 15.6586 20.4689 15.8741M20.4689 12.2376C20.6005 12.4532 20.622 12.7027 20.5289 12.9313C20.4358 13.1599 20.2355 13.3489 19.9722 13.4567L11.0829 17.0932C10.9287 17.1562 10.7587 17.1891 10.5863 17.1891C10.4138 17.1891 10.2438 17.1562 10.0896 17.0932L1.20033 13.4567C0.946179 13.3446 0.75536 13.1559 0.668293 12.9307C0.581226 12.7054 0.604751 12.4613 0.733884 12.25C0.863017 12.0387 1.08762 11.8768 1.3601 11.7986C1.63259 11.7205 1.93157 11.7322 2.1937 11.8312L10.5851 15.2631L18.9788 11.8312C19.2423 11.7236 19.5472 11.7059 19.8266 11.7821C20.106 11.8583 20.337 12.0221 20.4689 12.2376ZM20.4689 8.60115C20.6005 8.81672 20.622 9.06622 20.5289 9.29482C20.4358 9.52341 20.2355 9.71241 19.9722 9.82027L11.0829 13.4567C10.9287 13.5198 10.7587 13.5526 10.5863 13.5526C10.4138 13.5526 10.2438 13.5198 10.0896 13.4567L1.20033 9.82027C0.946179 9.70814 0.75536 9.51946 0.668293 9.29421C0.581226 9.06896 0.604751 8.82483 0.733884 8.61352C0.863017 8.40222 1.08762 8.24034 1.3601 8.16217C1.63259 8.08401 1.93157 8.0957 2.1937 8.19478L10.5851 11.6267L18.9788 8.19478C19.2423 8.08712 19.5472 8.06945 19.8266 8.14565C20.106 8.22184 20.337 8.38568 20.4689 8.60115ZM10.594 0.826416C10.6355 0.826416 10.6766 0.828537 10.7174 0.83278L10.8407 0.850962L10.9363 0.872781L10.9496 0.878235L10.9629 0.880054L10.9952 0.892781L11.0507 0.910054L11.0685 0.918236L11.0818 0.922782L19.9711 4.55923C20.1554 4.63482 20.3104 4.75087 20.4187 4.8944C20.527 5.03794 20.5844 5.2033 20.5844 5.37198C20.5844 5.54067 20.527 5.70603 20.4187 5.84956C20.3104 5.9931 20.1554 6.10915 19.9711 6.18473L11.0818 9.82118C10.9276 9.88423 10.7576 9.91706 10.5851 9.91706C10.4127 9.91706 10.2427 9.88423 10.0885 9.82118L1.19922 6.18473C1.0149 6.10915 0.859918 5.9931 0.751609 5.84956C0.6433 5.70603 0.585938 5.54067 0.585938 5.37198C0.585937 5.2033 0.6433 5.03794 0.751609 4.8944C0.859918 4.75087 1.0149 4.63482 1.19922 4.55923L10.0885 0.922782L10.1007 0.918236L10.1207 0.909145L10.2074 0.880054L10.2196 0.878235L10.234 0.872781L10.3296 0.850962L10.4518 0.83278L10.514 0.828234L10.594 0.826416Z" fill="#464255"/>
</svg>
