<svg width="21" height="21" viewBox="0 0 21 21" fill="none" xmlns="http://www.w3.org/2000/svg">
<g clip-path="url(#clip0_154_6202)">
<path d="M12.0962 2.68555V6.01888C12.0962 6.23989 12.184 6.45186 12.3403 6.60814C12.4965 6.76442 12.7085 6.85221 12.9295 6.85221H16.2629" stroke="#464255" stroke-width="2" stroke-linecap="round" stroke-linejoin="round"/>
<path d="M14.5962 17.6855H6.26286C5.82083 17.6855 5.39691 17.51 5.08435 17.1974C4.77179 16.8848 4.59619 16.4609 4.59619 16.0189V4.35221C4.59619 3.91019 4.77179 3.48626 5.08435 3.1737C5.39691 2.86114 5.82083 2.68555 6.26286 2.68555H12.0962L16.2629 6.85221V16.0189C16.2629 16.4609 16.0873 16.8848 15.7747 17.1974C15.4621 17.51 15.0382 17.6855 14.5962 17.6855Z" stroke="#464255" stroke-width="2" stroke-linecap="round" stroke-linejoin="round"/>
<path d="M7.92969 14.3523H12.9297L10.4297 9.35229L7.92969 14.3523Z" stroke="#464255" stroke-width="2" stroke-linecap="round" stroke-linejoin="round"/>
</g>
<defs>
<clipPath id="clip0_154_6202">
<rect width="20" height="20" fill="white" transform="translate(0.429688 0.185547)"/>
</clipPath>
</defs>
</svg>
