<svg width="21" height="21" viewBox="0 0 21 21" fill="none" xmlns="http://www.w3.org/2000/svg">
<path d="M6.4922 10.037V13.3704C6.4922 13.5914 6.58 13.8033 6.73628 13.9596C6.89256 14.1159 7.10452 14.2037 7.32553 14.2037H10.6589C10.7685 14.2043 10.8773 14.1833 10.9788 14.1418C11.0803 14.1004 11.1727 14.0393 11.2505 13.962L17.3255 7.89535C17.8579 7.35579 18.1563 6.62831 18.1563 5.87035C18.1563 5.1124 17.8579 4.38492 17.3255 3.84535L16.8505 3.37035C16.303 2.85348 15.5785 2.56555 14.8255 2.56555C14.0726 2.56555 13.3481 2.85348 12.8005 3.37035L6.73387 9.44535C6.65663 9.52322 6.59553 9.61557 6.55406 9.7171C6.51259 9.81863 6.49157 9.92735 6.4922 10.037ZM8.15887 10.3787L13.9922 4.54535C14.2178 4.33325 14.5159 4.21516 14.8255 4.21516C15.1352 4.21516 15.4332 4.33325 15.6589 4.54535L16.1255 5.01202C16.3454 5.23366 16.4687 5.53318 16.4687 5.84535C16.4687 6.15753 16.3454 6.45705 16.1255 6.67869L10.2922 12.512H8.15887V10.3787Z" fill="#464255"/>
<path d="M17.3229 10.0369C17.1019 10.0369 16.8899 10.1247 16.7337 10.2809C16.5774 10.4372 16.4896 10.6492 16.4896 10.8702V15.0369C16.4896 15.2579 16.4018 15.4698 16.2455 15.6261C16.0892 15.7824 15.8773 15.8702 15.6562 15.8702H5.65625C5.43524 15.8702 5.22327 15.7824 5.06699 15.6261C4.91071 15.4698 4.82292 15.2579 4.82292 15.0369V5.03686C4.82292 4.81585 4.91071 4.60389 5.06699 4.44761C5.22327 4.29133 5.43524 4.20353 5.65625 4.20353H9.82292C10.0439 4.20353 10.2559 4.11573 10.4122 3.95945C10.5685 3.80317 10.6562 3.59121 10.6562 3.3702C10.6562 3.14918 10.5685 2.93722 10.4122 2.78094C10.2559 2.62466 10.0439 2.53687 9.82292 2.53687H5.65625C4.99321 2.53687 4.35732 2.80026 3.88848 3.2691C3.41964 3.73794 3.15625 4.37382 3.15625 5.03686V15.0369C3.15625 15.6999 3.41964 16.3358 3.88848 16.8046C4.35732 17.2735 4.99321 17.5369 5.65625 17.5369H15.6562C16.3193 17.5369 16.9552 17.2735 17.424 16.8046C17.8929 16.3358 18.1562 15.6999 18.1562 15.0369V10.8702C18.1562 10.6492 18.0685 10.4372 17.9122 10.2809C17.7559 10.1247 17.5439 10.0369 17.3229 10.0369Z" fill="#464255"/>
</svg>
