<svg width="21" height="21" viewBox="0 0 21 21" fill="none" xmlns="http://www.w3.org/2000/svg">
<path d="M3.15366 19.0136H6.48699C6.59667 19.0142 6.70538 18.9932 6.80692 18.9517C6.90845 18.9102 7.00079 18.8491 7.07866 18.7719L17.0787 8.77189C17.1568 8.69443 17.2188 8.60226 17.2611 8.50071C17.3034 8.39916 17.3252 8.29024 17.3252 8.18023C17.3252 8.07022 17.3034 7.9613 17.2611 7.85975C17.2188 7.7582 17.1568 7.66603 17.0787 7.58856L13.7453 4.25523C13.6679 4.17712 13.5757 4.11512 13.4741 4.07282C13.3726 4.03051 13.2637 4.00873 13.1537 4.00873C13.0437 4.00873 12.9347 4.03051 12.8332 4.07282C12.7316 4.11512 12.6395 4.17712 12.562 4.25523L2.56199 14.2552C2.48476 14.3331 2.42365 14.4254 2.38218 14.527C2.34071 14.6285 2.31969 14.7372 2.32033 14.8469V18.1802C2.32033 18.4012 2.40812 18.6132 2.5644 18.7695C2.72068 18.9258 2.93265 19.0136 3.15366 19.0136V19.0136ZM3.98699 15.1886L13.1537 6.02189L15.312 8.18023L6.14533 17.3469H3.98699V15.1886Z" fill="#464255"/>
<path d="M15.4128 2.5884C15.3351 2.5107 15.2428 2.44907 15.1413 2.40702C15.0398 2.36497 14.931 2.34332 14.8211 2.34332C14.5992 2.34332 14.3864 2.43148 14.2295 2.5884C14.0725 2.74532 13.9844 2.95815 13.9844 3.18007C13.9844 3.40198 14.0725 3.61481 14.2295 3.77173L17.5628 7.10507C17.6403 7.18318 17.7324 7.24517 17.834 7.28748C17.9355 7.32978 18.0444 7.35157 18.1544 7.35157C18.2645 7.35157 18.3734 7.32978 18.4749 7.28748C18.5765 7.24517 18.6686 7.18318 18.7461 7.10507C18.8242 7.0276 18.8862 6.93543 18.9285 6.83388C18.9708 6.73233 18.9926 6.62341 18.9926 6.5134C18.9926 6.40339 18.9708 6.29447 18.9285 6.19292C18.8862 6.09137 18.8242 5.9992 18.7461 5.92173L15.4128 2.5884Z" fill="#464255"/>
</svg>
