<svg width="21" height="21" viewBox="0 0 21 21" fill="none" xmlns="http://www.w3.org/2000/svg">
<path d="M18.1536 5.13328H3.15365C2.68142 5.13328 2.32031 4.77217 2.32031 4.29995C2.32031 3.82772 2.68142 3.46661 3.15365 3.46661H18.1536C18.6259 3.46661 18.987 3.82772 18.987 4.29995C18.987 4.77217 18.6259 5.13328 18.1536 5.13328Z" fill="#464255"/>
<path d="M13.1536 9.57768H3.15365C2.68142 9.57768 2.32031 9.21657 2.32031 8.74434C2.32031 8.27212 2.68142 7.91101 3.15365 7.91101H13.1536C13.6259 7.91101 13.987 8.27212 13.987 8.74434C13.987 9.21657 13.6259 9.57768 13.1536 9.57768Z" fill="#464255"/>
<path d="M18.1536 14.0221H3.15365C2.68142 14.0221 2.32031 13.661 2.32031 13.1888C2.32031 12.7166 2.68142 12.3555 3.15365 12.3555H18.1536C18.6259 12.3555 18.987 12.7166 18.987 13.1888C18.987 13.661 18.6259 14.0221 18.1536 14.0221Z" fill="#464255"/>
<path d="M13.1536 18.4665H3.15365C2.68142 18.4665 2.32031 18.1054 2.32031 17.6332C2.32031 17.161 2.68142 16.7999 3.15365 16.7999H13.1536C13.6259 16.7999 13.987 17.161 13.987 17.6332C13.987 18.1054 13.6259 18.4665 13.1536 18.4665Z" fill="#464255"/>
</svg>
