<svg width="21" height="21" viewBox="0 0 21 21" fill="none" xmlns="http://www.w3.org/2000/svg">
<path d="M16.6453 14.2484C17.078 13.7319 17.3167 13.0805 17.3203 12.4067C17.3203 11.6332 17.013 10.8913 16.466 10.3443C15.9191 9.79732 15.1772 9.49003 14.4036 9.49003H14.1703C14.8576 8.67336 15.2352 7.64073 15.237 6.57337C15.2389 5.80382 15.0471 5.04618 14.6791 4.3703C14.3112 3.69442 13.779 3.12207 13.1316 2.70603C12.4842 2.28998 11.7425 2.04364 10.9748 1.98972C10.2072 1.9358 9.43828 2.07603 8.73909 2.39749C8.0399 2.71895 7.43291 3.21128 6.97409 3.82908C6.51526 4.44689 6.21938 5.17027 6.11373 5.93253C6.00808 6.69479 6.09605 7.47138 6.36955 8.19069C6.64304 8.90999 7.09325 9.54886 7.67865 10.0484C6.10387 10.6502 4.74867 11.7156 3.79199 13.1037C2.83532 14.4918 2.32217 16.1375 2.32031 17.8234C2.32031 18.0444 2.40811 18.2563 2.56439 18.4126C2.72067 18.5689 2.93263 18.6567 3.15365 18.6567C3.37466 18.6567 3.58662 18.5689 3.7429 18.4126C3.89918 18.2563 3.98698 18.0444 3.98698 17.8234C3.98698 16.0553 4.68936 14.3596 5.9396 13.1093C7.18984 11.8591 8.88554 11.1567 10.6536 11.1567H11.7786C11.5345 11.6534 11.4408 12.2105 11.5089 12.7597C11.577 13.309 11.804 13.8263 12.162 14.2484C11.452 14.6455 10.8608 15.2247 10.4492 15.9263C10.0376 16.6279 9.82052 17.4266 9.82031 18.24C9.82031 18.461 9.90811 18.673 10.0644 18.8293C10.2207 18.9856 10.4326 19.0734 10.6536 19.0734C10.8747 19.0734 11.0866 18.9856 11.2429 18.8293C11.3992 18.673 11.487 18.461 11.487 18.24C11.487 17.4665 11.7943 16.7246 12.3413 16.1776C12.8882 15.6307 13.6301 15.3234 14.4036 15.3234C15.1772 15.3234 15.9191 15.6307 16.466 16.1776C17.013 16.7246 17.3203 17.4665 17.3203 18.24C17.3203 18.461 17.4081 18.673 17.5644 18.8293C17.7207 18.9856 17.9326 19.0734 18.1536 19.0734C18.3747 19.0734 18.5866 18.9856 18.7429 18.8293C18.8992 18.673 18.987 18.461 18.987 18.24C18.9868 17.4266 18.7697 16.6279 18.3581 15.9263C17.9465 15.2247 17.3553 14.6455 16.6453 14.2484ZM10.6536 9.49003C10.0768 9.49003 9.51288 9.31897 9.03323 8.99849C8.55359 8.678 8.17975 8.22248 7.959 7.68953C7.73824 7.15658 7.68048 6.57013 7.79302 6.00435C7.90556 5.43858 8.18335 4.91888 8.59125 4.51097C8.99915 4.10307 9.51885 3.82528 10.0846 3.71274C10.6504 3.6002 11.2369 3.65796 11.7698 3.87872C12.3028 4.09947 12.7583 4.47331 13.0788 4.95295C13.3993 5.4326 13.5703 5.99651 13.5703 6.57337C13.5703 7.34692 13.263 8.08878 12.716 8.63576C12.1691 9.18274 11.4272 9.49003 10.6536 9.49003ZM14.4036 13.6567C14.0721 13.6567 13.7542 13.525 13.5198 13.2906C13.2853 13.0562 13.1536 12.7382 13.1536 12.4067C13.1558 12.0759 13.2882 11.7592 13.5222 11.5252C13.7561 11.2913 14.0728 11.1589 14.4036 11.1567C14.7352 11.1567 15.0531 11.2884 15.2875 11.5228C15.5219 11.7572 15.6536 12.0752 15.6536 12.4067C15.6536 12.7382 15.5219 13.0562 15.2875 13.2906C15.0531 13.525 14.7352 13.6567 14.4036 13.6567Z" fill="#464255"/>
</svg>
