<svg width="21" height="20" viewBox="0 0 21 20" fill="none" xmlns="http://www.w3.org/2000/svg">
<path d="M18.1563 15.835H4.82292V2.50167C4.82292 2.28065 4.73512 2.06869 4.57884 1.91241C4.42256 1.75613 4.2106 1.66833 3.98958 1.66833C3.76857 1.66833 3.55661 1.75613 3.40033 1.91241C3.24405 2.06869 3.15625 2.28065 3.15625 2.50167V16.6683C3.15625 16.8893 3.24405 17.1013 3.40033 17.2576C3.55661 17.4139 3.76857 17.5017 3.98958 17.5017H18.1563C18.3773 17.5017 18.5892 17.4139 18.7455 17.2576C18.9018 17.1013 18.9896 16.8893 18.9896 16.6683C18.9896 16.4473 18.9018 16.2354 18.7455 16.0791C18.5892 15.9228 18.3773 15.835 18.1563 15.835Z" fill="#464255"/>
<path d="M6.49219 9.16835V13.335C6.49219 13.556 6.57999 13.768 6.73627 13.9243C6.89255 14.0806 7.10451 14.1684 7.32552 14.1684C7.54653 14.1684 7.7585 14.0806 7.91478 13.9243C8.07106 13.768 8.15885 13.556 8.15885 13.335V9.16835C8.15885 8.94734 8.07106 8.73538 7.91478 8.5791C7.7585 8.42282 7.54653 8.33502 7.32552 8.33502C7.10451 8.33502 6.89255 8.42282 6.73627 8.5791C6.57999 8.73538 6.49219 8.94734 6.49219 9.16835Z" fill="#464255"/>
<path d="M9.82031 5.00173V13.3351C9.82031 13.5561 9.90811 13.768 10.0644 13.9243C10.2207 14.0806 10.4326 14.1684 10.6536 14.1684C10.8747 14.1684 11.0866 14.0806 11.2429 13.9243C11.3992 13.768 11.487 13.5561 11.487 13.3351V5.00173C11.487 4.78072 11.3992 4.56875 11.2429 4.41247C11.0866 4.25619 10.8747 4.1684 10.6536 4.1684C10.4326 4.1684 10.2207 4.25619 10.0644 4.41247C9.90811 4.56875 9.82031 4.78072 9.82031 5.00173Z" fill="#464255"/>
<path d="M13.1562 6.66835V13.335C13.1562 13.556 13.244 13.768 13.4003 13.9243C13.5566 14.0806 13.7686 14.1684 13.9896 14.1684C14.2106 14.1684 14.4226 14.0806 14.5788 13.9243C14.7351 13.768 14.8229 13.556 14.8229 13.335V6.66835C14.8229 6.44734 14.7351 6.23538 14.5788 6.0791C14.4226 5.92282 14.2106 5.83502 13.9896 5.83502C13.7686 5.83502 13.5566 5.92282 13.4003 6.0791C13.244 6.23538 13.1562 6.44734 13.1562 6.66835Z" fill="#464255"/>
<path d="M16.4922 2.50167V13.335C16.4922 13.556 16.58 13.768 16.7363 13.9243C16.8925 14.0805 17.1045 14.1683 17.3255 14.1683C17.5465 14.1683 17.7585 14.0805 17.9148 13.9243C18.0711 13.768 18.1589 13.556 18.1589 13.335V2.50167C18.1589 2.28065 18.0711 2.06869 17.9148 1.91241C17.7585 1.75613 17.5465 1.66833 17.3255 1.66833C17.1045 1.66833 16.8925 1.75613 16.7363 1.91241C16.58 2.06869 16.4922 2.28065 16.4922 2.50167Z" fill="#464255"/>
</svg>
