<svg width="21" height="21" viewBox="0 0 21 21" fill="none" xmlns="http://www.w3.org/2000/svg">
<path d="M5.65625 17.628H15.6562C16.3193 17.628 16.9552 17.3646 17.424 16.8958C17.8929 16.4269 18.1562 15.7911 18.1562 15.128V5.12801C18.1562 4.46497 17.8929 3.82909 17.424 3.36024C16.9552 2.8914 16.3193 2.62801 15.6562 2.62801H14.8229C14.8229 2.407 14.7351 2.19504 14.5788 2.03876C14.4226 1.88248 14.2106 1.79468 13.9896 1.79468C13.7686 1.79468 13.5566 1.88248 13.4003 2.03876C13.244 2.19504 13.1562 2.407 13.1562 2.62801H8.15625C8.15625 2.407 8.06845 2.19504 7.91217 2.03876C7.75589 1.88248 7.54393 1.79468 7.32292 1.79468C7.1019 1.79468 6.88994 1.88248 6.73366 2.03876C6.57738 2.19504 6.48958 2.407 6.48958 2.62801H5.65625C4.99321 2.62801 4.35732 2.8914 3.88848 3.36024C3.41964 3.82909 3.15625 4.46497 3.15625 5.12801V15.128C3.15625 15.7911 3.41964 16.4269 3.88848 16.8958C4.35732 17.3646 4.99321 17.628 5.65625 17.628ZM4.82292 5.12801C4.82292 4.907 4.91071 4.69504 5.06699 4.53876C5.22327 4.38248 5.43524 4.29468 5.65625 4.29468H6.48958V5.12801C6.48958 5.34903 6.57738 5.56099 6.73366 5.71727C6.88994 5.87355 7.1019 5.96134 7.32292 5.96134C7.54393 5.96134 7.75589 5.87355 7.91217 5.71727C8.06845 5.56099 8.15625 5.34903 8.15625 5.12801V4.29468H13.1562V5.12801C13.1562 5.34903 13.244 5.56099 13.4003 5.71727C13.5566 5.87355 13.7686 5.96134 13.9896 5.96134C14.2106 5.96134 14.4226 5.87355 14.5788 5.71727C14.7351 5.56099 14.8229 5.34903 14.8229 5.12801V4.29468H15.6562C15.8773 4.29468 16.0892 4.38248 16.2455 4.53876C16.4018 4.69504 16.4896 4.907 16.4896 5.12801V7.62801H4.82292V5.12801ZM4.82292 9.29468H16.4896V15.128C16.4896 15.349 16.4018 15.561 16.2455 15.7173C16.0892 15.8735 15.8773 15.9613 15.6562 15.9613H5.65625C5.43524 15.9613 5.22327 15.8735 5.06699 15.7173C4.91071 15.561 4.82292 15.349 4.82292 15.128V9.29468Z" fill="#464255"/>
</svg>
