<svg width="21" height="21" viewBox="0 0 21 21" fill="none" xmlns="http://www.w3.org/2000/svg">
<path d="M4.82031 18.25H16.487C17.15 18.25 17.7859 17.9866 18.2547 17.5178C18.7236 17.0489 18.987 16.413 18.987 15.75V5.75C18.987 5.08696 18.7236 4.45107 18.2547 3.98223C17.7859 3.51339 17.15 3.25 16.487 3.25H4.82031C4.15727 3.25 3.52139 3.51339 3.05255 3.98223C2.5837 4.45107 2.32031 5.08696 2.32031 5.75V15.75C2.32031 16.413 2.5837 17.0489 3.05255 17.5178C3.52139 17.9866 4.15727 18.25 4.82031 18.25ZM17.3203 11.5833H13.1536V9.91667H17.3203V11.5833ZM3.98698 5.75C3.98698 5.52899 4.07478 5.31702 4.23106 5.16074C4.38734 5.00446 4.5993 4.91667 4.82031 4.91667H16.487C16.708 4.91667 16.92 5.00446 17.0762 5.16074C17.2325 5.31702 17.3203 5.52899 17.3203 5.75V8.25H12.3203C12.0993 8.25 11.8873 8.3378 11.7311 8.49408C11.5748 8.65036 11.487 8.86232 11.487 9.08333V12.4167C11.487 12.6377 11.5748 12.8496 11.7311 13.0059C11.8873 13.1622 12.0993 13.25 12.3203 13.25H17.3203V15.75C17.3203 15.971 17.2325 16.183 17.0762 16.3393C16.92 16.4955 16.708 16.5833 16.487 16.5833H4.82031C4.5993 16.5833 4.38734 16.4955 4.23106 16.3393C4.07478 16.183 3.98698 15.971 3.98698 15.75V5.75Z" fill="#464255"/>
</svg>
