<svg width="21" height="21" viewBox="0 0 21 21" fill="none" xmlns="http://www.w3.org/2000/svg">
<path d="M11.2005 2.51165C11.0496 2.38256 10.8575 2.31163 10.6589 2.31165H4.82552C4.60451 2.31165 4.39255 2.39944 4.23627 2.55572C4.07999 2.712 3.99219 2.92397 3.99219 3.14498V18.145C3.99219 18.366 4.07999 18.578 4.23627 18.7342C4.39255 18.8905 4.60451 18.9783 4.82552 18.9783H16.4922C16.7132 18.9783 16.9252 18.8905 17.0814 18.7342C17.2377 18.578 17.3255 18.366 17.3255 18.145V8.14498C17.3255 8.02461 17.2995 7.90567 17.2491 7.79634C17.1988 7.68701 17.1253 7.58988 17.0339 7.51165L11.2005 2.51165ZM11.4922 4.95331L14.2422 7.31165H11.4922V4.95331ZM15.6589 17.3116H5.65885V3.97831H9.82552V8.14498C9.82552 8.36599 9.91332 8.57795 10.0696 8.73423C10.2259 8.89051 10.4378 8.97831 10.6589 8.97831H15.6589V17.3116Z" fill="#464255"/>
</svg>
