<svg width="21" height="21" viewBox="0 0 21 21" fill="none" xmlns="http://www.w3.org/2000/svg">
<g clip-path="url(#clip0_129_4029)">
<path d="M3.15625 7.85844C3.15625 7.41641 3.33184 6.99249 3.64441 6.67993C3.95697 6.36737 4.38089 6.19177 4.82292 6.19177H16.4896C16.9316 6.19177 17.3555 6.36737 17.6681 6.67993C17.9807 6.99249 18.1562 7.41641 18.1562 7.85844V15.3584C18.1562 15.8005 17.9807 16.2244 17.6681 16.5369C17.3555 16.8495 16.9316 17.0251 16.4896 17.0251H4.82292C4.38089 17.0251 3.95697 16.8495 3.64441 16.5369C3.33184 16.2244 3.15625 15.8005 3.15625 15.3584V7.85844Z" stroke="#464255" stroke-width="2" stroke-linecap="round" stroke-linejoin="round"/>
<path d="M7.32031 6.19173V4.52507C7.32031 4.08304 7.49591 3.65911 7.80847 3.34655C8.12103 3.03399 8.54495 2.8584 8.98698 2.8584H12.3203C12.7623 2.8584 13.1863 3.03399 13.4988 3.34655C13.8114 3.65911 13.987 4.08304 13.987 4.52507V6.19173" stroke="#464255" stroke-width="2" stroke-linecap="round" stroke-linejoin="round"/>
<path d="M10.6562 10.3584V10.3667" stroke="black" stroke-width="2" stroke-linecap="round" stroke-linejoin="round"/>
<path d="M3.15625 11.1918C5.48257 12.364 8.05127 12.9746 10.6562 12.9746C13.2612 12.9746 15.8299 12.364 18.1562 11.1918" stroke="#464255" stroke-width="2" stroke-linecap="round" stroke-linejoin="round"/>
</g>
<defs>
<clipPath id="clip0_129_4029">
<rect width="20" height="20" fill="white" transform="translate(0.65625 0.358398)"/>
</clipPath>
</defs>
</svg>
