<svg width="21" height="21" viewBox="0 0 21 21" fill="none" xmlns="http://www.w3.org/2000/svg">
<path d="M13.6286 10.4399C14.3417 9.83149 14.8511 9.01905 15.0881 8.11214C15.3251 7.20524 15.2783 6.24747 14.9541 5.36797C14.6298 4.48847 14.0437 3.72953 13.2748 3.19346C12.5058 2.6574 11.591 2.37 10.6536 2.37C9.71629 2.37 8.80146 2.6574 8.03251 3.19346C7.26356 3.72953 6.67746 4.48847 6.35323 5.36797C6.029 6.24747 5.98223 7.20524 6.21923 8.11214C6.45622 9.01905 6.96559 9.83149 7.67865 10.4399C6.10387 11.0418 4.74867 12.1071 3.79199 13.4953C2.83532 14.8834 2.32217 16.5291 2.32031 18.2149C2.32031 18.4359 2.40811 18.6479 2.56439 18.8042C2.72067 18.9605 2.93263 19.0483 3.15365 19.0483C3.37466 19.0483 3.58662 18.9605 3.7429 18.8042C3.89918 18.6479 3.98698 18.4359 3.98698 18.2149C3.98698 16.4468 4.68936 14.7511 5.9396 13.5009C7.18984 12.2506 8.88554 11.5483 10.6536 11.5483C12.4218 11.5483 14.1175 12.2506 15.3677 13.5009C16.6179 14.7511 17.3203 16.4468 17.3203 18.2149C17.3203 18.4359 17.4081 18.6479 17.5644 18.8042C17.7207 18.9605 17.9326 19.0483 18.1536 19.0483C18.3747 19.0483 18.5866 18.9605 18.7429 18.8042C18.8992 18.6479 18.987 18.4359 18.987 18.2149C18.9851 16.5291 18.472 14.8834 17.5153 13.4953C16.5586 12.1071 15.2034 11.0418 13.6286 10.4399ZM10.6536 9.88159C10.0768 9.88159 9.51288 9.71053 9.03323 9.39004C8.55359 9.06955 8.17975 8.61403 7.959 8.08108C7.73824 7.54813 7.68048 6.96169 7.79302 6.39591C7.90556 5.83013 8.18335 5.31043 8.59125 4.90253C8.99916 4.49462 9.51886 4.21684 10.0846 4.1043C10.6504 3.99176 11.2369 4.04952 11.7698 4.27027C12.3028 4.49103 12.7583 4.86486 13.0788 5.34451C13.3993 5.82415 13.5703 6.38806 13.5703 6.96492C13.5703 7.73847 13.263 8.48033 12.716 9.02732C12.1691 9.5743 11.4272 9.88159 10.6536 9.88159Z" fill="#464255"/>
</svg>
