<svg width="21" height="21" viewBox="0 0 21 21" fill="none" xmlns="http://www.w3.org/2000/svg">
<path d="M5.65625 17.8934H15.6562C16.3193 17.8934 16.9552 17.63 17.424 17.1612C17.8929 16.6923 18.1562 16.0564 18.1562 15.3934V5.39339C18.1562 4.73035 17.8929 4.09447 17.424 3.62563C16.9552 3.15678 16.3193 2.89339 15.6562 2.89339H14.8229C14.8229 2.67238 14.7351 2.46042 14.5788 2.30414C14.4226 2.14786 14.2106 2.06006 13.9896 2.06006C13.7686 2.06006 13.5566 2.14786 13.4003 2.30414C13.244 2.46042 13.1562 2.67238 13.1562 2.89339H8.15625C8.15625 2.67238 8.06845 2.46042 7.91217 2.30414C7.75589 2.14786 7.54393 2.06006 7.32292 2.06006C7.1019 2.06006 6.88994 2.14786 6.73366 2.30414C6.57738 2.46042 6.48958 2.67238 6.48958 2.89339H5.65625C4.99321 2.89339 4.35732 3.15678 3.88848 3.62563C3.41964 4.09447 3.15625 4.73035 3.15625 5.39339V15.3934C3.15625 16.0564 3.41964 16.6923 3.88848 17.1612C4.35732 17.63 4.99321 17.8934 5.65625 17.8934ZM4.82292 5.39339C4.82292 5.17238 4.91071 4.96042 5.06699 4.80414C5.22327 4.64786 5.43524 4.56006 5.65625 4.56006H6.48958V5.39339C6.48958 5.61441 6.57738 5.82637 6.73366 5.98265C6.88994 6.13893 7.1019 6.22673 7.32292 6.22673C7.54393 6.22673 7.75589 6.13893 7.91217 5.98265C8.06845 5.82637 8.15625 5.61441 8.15625 5.39339V4.56006H13.1562V5.39339C13.1562 5.61441 13.244 5.82637 13.4003 5.98265C13.5566 6.13893 13.7686 6.22673 13.9896 6.22673C14.2106 6.22673 14.4226 6.13893 14.5788 5.98265C14.7351 5.82637 14.8229 5.61441 14.8229 5.39339V4.56006H15.6562C15.8773 4.56006 16.0892 4.64786 16.2455 4.80414C16.4018 4.96042 16.4896 5.17238 16.4896 5.39339V7.89339H4.82292V5.39339ZM4.82292 9.56006H16.4896V15.3934C16.4896 15.6144 16.4018 15.8264 16.2455 15.9826C16.0892 16.1389 15.8773 16.2267 15.6562 16.2267H5.65625C5.43524 16.2267 5.22327 16.1389 5.06699 15.9826C4.91071 15.8264 4.82292 15.6144 4.82292 15.3934V9.56006Z" fill="#464255"/>
</svg>
