<svg width="21" height="21" viewBox="0 0 21 21" fill="none" xmlns="http://www.w3.org/2000/svg">
<path d="M10.6536 10.0713C11.1139 10.0713 11.487 9.69823 11.487 9.238C11.487 8.77776 11.1139 8.40466 10.6536 8.40466C10.1934 8.40466 9.82031 8.77776 9.82031 9.238C9.82031 9.69823 10.1934 10.0713 10.6536 10.0713Z" fill="#464255"/>
<path d="M7.32552 10.0713C7.78576 10.0713 8.15885 9.69823 8.15885 9.238C8.15885 8.77776 7.78576 8.40466 7.32552 8.40466C6.86528 8.40466 6.49219 8.77776 6.49219 9.238C6.49219 9.69823 6.86528 10.0713 7.32552 10.0713Z" fill="#464255"/>
<path d="M13.9896 10.0713C14.4498 10.0713 14.8229 9.69823 14.8229 9.238C14.8229 8.77776 14.4498 8.40466 13.9896 8.40466C13.5293 8.40466 13.1562 8.77776 13.1562 9.238C13.1562 9.69823 13.5293 10.0713 13.9896 10.0713Z" fill="#464255"/>
<path d="M3.19537 18.2965C3.36979 18.3685 3.5567 18.4053 3.74537 18.4049C3.93145 18.4058 4.11582 18.3694 4.28758 18.2978C4.45935 18.2263 4.61501 18.121 4.74537 17.9882L6.82871 15.9049H14.8204C15.9254 15.9049 16.9852 15.4659 17.7667 14.6845C18.5481 13.9031 18.987 12.8433 18.987 11.7382V6.7382C18.987 5.63313 18.5481 4.57332 17.7667 3.79192C16.9852 3.01052 15.9254 2.57153 14.8204 2.57153H6.48704C5.38197 2.57153 4.32216 3.01052 3.54076 3.79192C2.75936 4.57332 2.32037 5.63313 2.32037 6.7382V16.9799C2.31773 17.2617 2.39971 17.5378 2.5557 17.7726C2.71169 18.0073 2.93452 18.1898 3.19537 18.2965V18.2965ZM3.98704 6.7382C3.98704 6.07516 4.25043 5.43927 4.71927 4.97043C5.18811 4.50159 5.824 4.2382 6.48704 4.2382H14.8204C15.4834 4.2382 16.1193 4.50159 16.5881 4.97043C17.057 5.43927 17.3204 6.07516 17.3204 6.7382V11.7382C17.3204 12.4012 17.057 13.0371 16.5881 13.506C16.1193 13.9748 15.4834 14.2382 14.8204 14.2382H6.48704C6.37737 14.2376 6.26865 14.2586 6.16712 14.3001C6.06559 14.3415 5.97324 14.4026 5.89537 14.4799L3.98704 16.3965V6.7382Z" fill="#464255"/>
</svg>
