<svg width="21" height="21" viewBox="0 0 21 21" fill="none" xmlns="http://www.w3.org/2000/svg">
<g clip-path="url(#clip0_163_11392)">
<path d="M12.0625 2.63379V6.03874C12.0625 6.2645 12.1503 6.48101 12.3066 6.64065C12.4629 6.80029 12.6748 6.88997 12.8958 6.88997H16.2292" stroke="#464255" stroke-width="2" stroke-linecap="round" stroke-linejoin="round"/>
<path d="M9.97917 17.9561H6.22917C5.78714 17.9561 5.36322 17.7767 5.05066 17.4574C4.73809 17.1381 4.5625 16.7051 4.5625 16.2536V4.33626C4.5625 3.88474 4.73809 3.45171 5.05066 3.13243C5.36322 2.81316 5.78714 2.63379 6.22917 2.63379H12.0625L16.2292 6.88997V11.1462M12.0625 16.2536H17.8958M17.8958 16.2536L15.3958 13.6999M17.8958 16.2536L15.3958 18.8073" stroke="#464255" stroke-width="2" stroke-linecap="round" stroke-linejoin="round"/>
</g>
<defs>
<clipPath id="clip0_163_11392">
<rect width="20" height="20.4297" fill="white" transform="translate(0.398438 0.0800781)"/>
</clipPath>
</defs>
</svg>
