<svg width="21" height="21" viewBox="0 0 21 21" fill="none" xmlns="http://www.w3.org/2000/svg">
<g clip-path="url(#clip0_163_11396)">
<path d="M7.89583 4.61816H6.22917C5.78714 4.61816 5.36322 4.79753 5.05066 5.11681C4.73809 5.43608 4.5625 5.86911 4.5625 6.32064V16.5355C4.5625 16.987 4.73809 17.42 5.05066 17.7393C5.36322 18.0586 5.78714 18.238 6.22917 18.238H14.5625C15.0045 18.238 15.4285 18.0586 15.741 17.7393C16.0536 17.42 16.2292 16.987 16.2292 16.5355V6.32064C16.2292 5.86911 16.0536 5.43608 15.741 5.11681C15.4285 4.79753 15.0045 4.61816 14.5625 4.61816H12.8958" stroke="#464255" stroke-width="2" stroke-linecap="round" stroke-linejoin="round"/>
<path d="M7.89844 4.61849C7.89844 4.16696 8.07403 3.73393 8.38659 3.41466C8.69915 3.09538 9.12308 2.91602 9.5651 2.91602H11.2318C11.6738 2.91602 12.0977 3.09538 12.4103 3.41466C12.7228 3.73393 12.8984 4.16696 12.8984 4.61849C12.8984 5.07001 12.7228 5.50304 12.4103 5.82232C12.0977 6.1416 11.6738 6.32096 11.2318 6.32096H9.5651C9.12308 6.32096 8.69915 6.1416 8.38659 5.82232C8.07403 5.50304 7.89844 5.07001 7.89844 4.61849Z" stroke="#464255" stroke-width="2" stroke-linecap="round" stroke-linejoin="round"/>
<path d="M7.89844 10.5771H12.8984" stroke="#464255" stroke-width="2" stroke-linecap="round" stroke-linejoin="round"/>
<path d="M7.89844 13.9824H12.8984" stroke="#464255" stroke-width="2" stroke-linecap="round" stroke-linejoin="round"/>
</g>
<defs>
<clipPath id="clip0_163_11396">
<rect width="20" height="20.4297" fill="white" transform="translate(0.398438 0.362305)"/>
</clipPath>
</defs>
</svg>
