<svg width="21" height="21" viewBox="0 0 21 21" fill="none" xmlns="http://www.w3.org/2000/svg">
<g clip-path="url(#clip0_163_11402)">
<path d="M7.89583 4.37891H6.22917C5.78714 4.37891 5.36322 4.55827 5.05066 4.87755C4.73809 5.19682 4.5625 5.62986 4.5625 6.08138V16.2962C4.5625 16.7477 4.73809 17.1808 5.05066 17.5001C5.36322 17.8193 5.78714 17.9987 6.22917 17.9987H14.5625C15.0045 17.9987 15.4285 17.8193 15.741 17.5001C16.0536 17.1808 16.2292 16.7477 16.2292 16.2962V6.08138C16.2292 5.62986 16.0536 5.19682 15.741 4.87755C15.4285 4.55827 15.0045 4.37891 14.5625 4.37891H12.8958" stroke="#464255" stroke-width="2" stroke-linecap="round" stroke-linejoin="round"/>
<path d="M7.89844 4.37923C7.89844 3.92771 8.07403 3.49468 8.38659 3.1754C8.69915 2.85612 9.12308 2.67676 9.5651 2.67676H11.2318C11.6738 2.67676 12.0977 2.85612 12.4103 3.1754C12.7228 3.49468 12.8984 3.92771 12.8984 4.37923C12.8984 4.83076 12.7228 5.26379 12.4103 5.58306C12.0977 5.90234 11.6738 6.0817 11.2318 6.0817H9.5651C9.12308 6.0817 8.69915 5.90234 8.38659 5.58306C8.07403 5.26379 7.89844 4.83076 7.89844 4.37923Z" stroke="#464255" stroke-width="2" stroke-linecap="round" stroke-linejoin="round"/>
<path d="M12.0677 9.48633H9.98437C9.65285 9.48633 9.33491 9.62085 9.10049 9.86031C8.86607 10.0998 8.73438 10.4245 8.73438 10.7632C8.73438 11.1018 8.86607 11.4266 9.10049 11.6661C9.33491 11.9055 9.65285 12.04 9.98437 12.04H10.8177C11.1492 12.04 11.4672 12.1746 11.7016 12.414C11.936 12.6535 12.0677 12.9783 12.0677 13.3169C12.0677 13.6555 11.936 13.9803 11.7016 14.2198C11.4672 14.4592 11.1492 14.5937 10.8177 14.5937H8.73438" stroke="#464255" stroke-width="2" stroke-linecap="round" stroke-linejoin="round"/>
<path d="M10.3984 14.5944V15.4456M10.3984 8.63574V9.48698" stroke="#464255" stroke-width="2" stroke-linecap="round" stroke-linejoin="round"/>
</g>
<defs>
<clipPath id="clip0_163_11402">
<rect width="20" height="20.4297" fill="white" transform="translate(0.398438 0.123047)"/>
</clipPath>
</defs>
</svg>
