<svg width="21" height="22" viewBox="0 0 21 22" fill="none" xmlns="http://www.w3.org/2000/svg">
<g clip-path="url(#clip0_163_11372)">
<path d="M11.2344 15.1198C11.2344 16.0228 11.5856 16.8889 12.2107 17.5275C12.8358 18.166 13.6837 18.5247 14.5677 18.5247C15.4518 18.5247 16.2996 18.166 16.9247 17.5275C17.5499 16.8889 17.901 16.0228 17.901 15.1198C17.901 14.2167 17.5499 13.3507 16.9247 12.7121C16.2996 12.0736 15.4518 11.7148 14.5677 11.7148C13.6837 11.7148 12.8358 12.0736 12.2107 12.7121C11.5856 13.3507 11.2344 14.2167 11.2344 15.1198Z" stroke="#464255" stroke-width="2" stroke-linecap="round" stroke-linejoin="round"/>
<path d="M14.5625 11.7148V15.1198H17.8958" stroke="#464255" stroke-width="2" stroke-linecap="round" stroke-linejoin="round"/>
<path d="M10.3984 3.20215V6.6071C10.3984 6.83286 10.4862 7.04937 10.6425 7.20901C10.7988 7.36865 11.0108 7.45833 11.2318 7.45833H14.5651" stroke="#464255" stroke-width="2" stroke-linecap="round" stroke-linejoin="round"/>
<path d="M9.98177 18.5244H4.5651C4.12308 18.5244 3.69915 18.345 3.38659 18.0258C3.07403 17.7065 2.89844 17.2735 2.89844 16.8219V4.90462C2.89844 4.4531 3.07403 4.02007 3.38659 3.70079C3.69915 3.38152 4.12308 3.20215 4.5651 3.20215H10.3984L14.5651 7.45833V9.16081M14.5651 11.7145V15.1195" stroke="#464255" stroke-width="2" stroke-linecap="round" stroke-linejoin="round"/>
</g>
<defs>
<clipPath id="clip0_163_11372">
<rect width="20" height="20.4297" fill="white" transform="translate(0.398438 0.648438)"/>
</clipPath>
</defs>
</svg>
