<svg width="21" height="22" viewBox="0 0 21 22" fill="none" xmlns="http://www.w3.org/2000/svg">
<g clip-path="url(#clip0_163_11385)">
<path d="M7.89583 5.20898H6.22917C5.78714 5.20898 5.36322 5.38835 5.05066 5.70763C4.73809 6.0269 4.5625 6.45993 4.5625 6.91146V17.1263C4.5625 17.5778 4.73809 18.0109 5.05066 18.3301C5.36322 18.6494 5.78714 18.8288 6.22917 18.8288H14.5625C15.0045 18.8288 15.4285 18.6494 15.741 18.3301C16.0536 18.0109 16.2292 17.5778 16.2292 17.1263V6.91146C16.2292 6.45993 16.0536 6.0269 15.741 5.70763C15.4285 5.38835 15.0045 5.20898 14.5625 5.20898H12.8958" stroke="#464255" stroke-width="2" stroke-linecap="round" stroke-linejoin="round"/>
<path d="M7.89844 5.20931C7.89844 4.75779 8.07403 4.32475 8.38659 4.00548C8.69915 3.6862 9.12308 3.50684 9.5651 3.50684H11.2318C11.6738 3.50684 12.0977 3.6862 12.4103 4.00548C12.7228 4.32475 12.8984 4.75779 12.8984 5.20931C12.8984 5.66083 12.7228 6.09386 12.4103 6.41314C12.0977 6.73242 11.6738 6.91178 11.2318 6.91178H9.5651C9.12308 6.91178 8.69915 6.73242 8.38659 6.41314C8.07403 6.09386 7.89844 5.66083 7.89844 5.20931Z" stroke="#464255" stroke-width="2" stroke-linecap="round" stroke-linejoin="round"/>
<path d="M7.89844 12.8701H7.90677" stroke="#464255" stroke-width="2" stroke-linecap="round" stroke-linejoin="round"/>
<path d="M7.89844 15.4238H7.90677" stroke="#464255" stroke-width="2" stroke-linecap="round" stroke-linejoin="round"/>
<path d="M10.3984 14.5726L11.2318 15.4238L13.7318 12.8701" stroke="#464255" stroke-width="2" stroke-linecap="round" stroke-linejoin="round"/>
</g>
<defs>
<clipPath id="clip0_163_11385">
<rect width="20" height="20.4297" fill="white" transform="translate(0.398438 0.953125)"/>
</clipPath>
</defs>
</svg>
