<svg width="21" height="21" viewBox="0 0 21 21" fill="none" xmlns="http://www.w3.org/2000/svg">
<g clip-path="url(#clip0_163_11408)">
<path d="M11.2344 15.0182C11.2344 15.9213 11.5856 16.7873 12.2107 17.4259C12.8358 18.0644 13.6837 18.4232 14.5677 18.4232C15.4518 18.4232 16.2996 18.0644 16.9247 17.4259C17.5499 16.7873 17.901 15.9213 17.901 15.0182C17.901 14.1152 17.5499 13.2491 16.9247 12.6106C16.2996 11.972 15.4518 11.6133 14.5677 11.6133C13.6837 11.6133 12.8358 11.972 12.2107 12.6106C11.5856 13.2491 11.2344 14.1152 11.2344 15.0182Z" stroke="#464255" stroke-width="2" stroke-linecap="round" stroke-linejoin="round"/>
<path d="M14.5625 11.6133V15.0182H17.8958" stroke="#464255" stroke-width="2" stroke-linecap="round" stroke-linejoin="round"/>
<path d="M10.3984 3.10059V6.50553C10.3984 6.73129 10.4862 6.94781 10.6425 7.10745C10.7988 7.26709 11.0108 7.35677 11.2318 7.35677H14.5651" stroke="#464255" stroke-width="2" stroke-linecap="round" stroke-linejoin="round"/>
<path d="M9.98177 18.4228H4.5651C4.12308 18.4228 3.69915 18.2435 3.38659 17.9242C3.07403 17.6049 2.89844 17.1719 2.89844 16.7204V4.80306C2.89844 4.35154 3.07403 3.9185 3.38659 3.59923C3.69915 3.27995 4.12308 3.10059 4.5651 3.10059H10.3984L14.5651 7.35677V9.05924M14.5651 11.613V15.0179" stroke="#464255" stroke-width="2" stroke-linecap="round" stroke-linejoin="round"/>
</g>
<defs>
<clipPath id="clip0_163_11408">
<rect width="20" height="20.4297" fill="white" transform="translate(0.398438 0.546875)"/>
</clipPath>
</defs>
</svg>
