<svg width="21" height="21" viewBox="0 0 21 21" fill="none" xmlns="http://www.w3.org/2000/svg">
<g clip-path="url(#clip0_154_4954)">
<path d="M17.4476 9.36629V7.69963C17.4476 7.2576 17.272 6.83367 16.9594 6.52111C16.6469 6.20855 16.223 6.03296 15.7809 6.03296H5.78092C5.3389 6.03296 4.91497 6.20855 4.60241 6.52111C4.28985 6.83367 4.11426 7.2576 4.11426 7.69963V11.8663C4.11426 12.3083 4.28985 12.7322 4.60241 13.0448C4.91497 13.3574 5.3389 13.533 5.78092 13.533H9.94759" stroke="#464255" stroke-width="2" stroke-linecap="round" stroke-linejoin="round"/>
<path d="M13.2812 15.1997C13.2812 15.8627 13.5446 16.4986 14.0135 16.9675C14.4823 17.4363 15.1182 17.6997 15.7812 17.6997C16.4443 17.6997 17.0802 17.4363 17.549 16.9675C18.0179 16.4986 18.2812 15.8627 18.2812 15.1997C18.2812 14.5367 18.0179 13.9008 17.549 13.4319C17.0802 12.9631 16.4443 12.6997 15.7812 12.6997C15.1182 12.6997 14.4823 12.9631 14.0135 13.4319C13.5446 13.9008 13.2812 14.5367 13.2812 15.1997Z" stroke="#464255" stroke-width="2" stroke-linecap="round" stroke-linejoin="round"/>
<path d="M17.6143 17.033L19.1143 18.533" stroke="#464255" stroke-width="2" stroke-linecap="round" stroke-linejoin="round"/>
</g>
<defs>
<clipPath id="clip0_154_4954">
<rect width="20" height="20" fill="white" transform="translate(0.78125 0.199707)"/>
</clipPath>
</defs>
</svg>
