<svg width="21" height="21" viewBox="0 0 21 21" fill="none" xmlns="http://www.w3.org/2000/svg">
<g clip-path="url(#clip0_154_4985)">
<path d="M5.94238 15.3974C5.94238 15.8394 6.11798 16.2633 6.43054 16.5759C6.7431 16.8885 7.16702 17.064 7.60905 17.064C8.05108 17.064 8.475 16.8885 8.78756 16.5759C9.10012 16.2633 9.27572 15.8394 9.27572 15.3974C9.27572 14.9554 9.10012 14.5314 8.78756 14.2189C8.475 13.9063 8.05108 13.7307 7.60905 13.7307C7.16702 13.7307 6.7431 13.9063 6.43054 14.2189C6.11798 14.5314 5.94238 14.9554 5.94238 15.3974Z" stroke="#464255" stroke-width="2" stroke-linecap="round" stroke-linejoin="round"/>
<path d="M9.27604 15.3974H15.1094C15.5514 15.3974 15.9753 15.2218 16.2879 14.9092C16.6004 14.5967 16.776 14.1727 16.776 13.7307V7.89738C16.776 7.45535 16.6004 7.03143 16.2879 6.71887C15.9753 6.40631 15.5514 6.23071 15.1094 6.23071H7.19271C5.97713 6.23071 4.81134 6.7136 3.9518 7.57314C3.09226 8.43268 2.60938 9.59847 2.60938 10.814V13.7307C2.60938 14.1727 2.78497 14.5967 3.09753 14.9092C3.41009 15.2218 3.83401 15.3974 4.27604 15.3974H5.94271" stroke="#464255" stroke-width="2" stroke-linecap="round" stroke-linejoin="round"/>
<path d="M6.77637 6.23071L12.6097 3.73071L13.443 6.23071" stroke="#464255" stroke-width="2" stroke-linecap="round" stroke-linejoin="round"/>
<path d="M10.9424 9.98088C10.9424 9.87037 10.9863 9.76439 11.0644 9.68625C11.1426 9.60811 11.2485 9.56421 11.359 9.56421H13.0257C13.1362 9.56421 13.2422 9.60811 13.3203 9.68625C13.3985 9.76439 13.4424 9.87037 13.4424 9.98088V11.6475C13.4424 11.758 13.3985 11.864 13.3203 11.9422C13.2422 12.0203 13.1362 12.0642 13.0257 12.0642H11.359C11.2485 12.0642 11.1426 12.0203 11.0644 11.9422C10.9863 11.864 10.9424 11.758 10.9424 11.6475V9.98088Z" stroke="#464255" stroke-width="2" stroke-linecap="round" stroke-linejoin="round"/>
<path d="M16.7764 13.7307H18.443" stroke="#464255" stroke-width="2" stroke-linecap="round" stroke-linejoin="round"/>
</g>
<defs>
<clipPath id="clip0_154_4985">
<rect width="20" height="20" fill="white" transform="translate(0.109375 0.397461)"/>
</clipPath>
</defs>
</svg>
