<svg width="21" height="21" viewBox="0 0 21 21" fill="none" xmlns="http://www.w3.org/2000/svg">
<g clip-path="url(#clip0_154_4982)">
<path d="M4.27637 5.05632C4.27637 4.61429 4.45196 4.19036 4.76452 3.8778C5.07708 3.56524 5.50101 3.38965 5.94303 3.38965H14.2764C14.7184 3.38965 15.1423 3.56524 15.4549 3.8778C15.7674 4.19036 15.943 4.61429 15.943 5.05632V16.723C15.943 17.165 15.7674 17.5889 15.4549 17.9015C15.1423 18.2141 14.7184 18.3896 14.2764 18.3896H5.94303C5.50101 18.3896 5.07708 18.2141 4.76452 17.9015C4.45196 17.5889 4.27637 17.165 4.27637 16.723V5.05632Z" stroke="#464255" stroke-width="2" stroke-linecap="round" stroke-linejoin="round"/>
</g>
<defs>
<clipPath id="clip0_154_4982">
<rect width="20" height="20" fill="white" transform="translate(0.109375 0.889648)"/>
</clipPath>
</defs>
</svg>
