<svg width="21" height="21" viewBox="0 0 21 21" fill="none" xmlns="http://www.w3.org/2000/svg">
<g clip-path="url(#clip0_154_4992)">
<path d="M10.943 17.7467H5.94303C5.50101 17.7467 5.07708 17.5711 4.76452 17.2585C4.45196 16.9459 4.27637 16.522 4.27637 16.08V11.08C4.27637 10.638 4.45196 10.214 4.76452 9.90149C5.07708 9.58893 5.50101 9.41333 5.94303 9.41333H14.2764" stroke="#464255" stroke-width="2" stroke-linecap="round" stroke-linejoin="round"/>
<path d="M9.27637 13.5799C9.27637 13.8009 9.36416 14.0129 9.52045 14.1692C9.67673 14.3255 9.88869 14.4132 10.1097 14.4132C10.3307 14.4132 10.5427 14.3255 10.699 14.1692C10.8552 14.0129 10.943 13.8009 10.943 13.5799C10.943 13.3589 10.8552 13.1469 10.699 12.9907C10.5427 12.8344 10.3307 12.7466 10.1097 12.7466C9.88869 12.7466 9.67673 12.8344 9.52045 12.9907C9.36416 13.1469 9.27637 13.3589 9.27637 13.5799Z" stroke="#464255" stroke-width="2" stroke-linecap="round" stroke-linejoin="round"/>
<path d="M6.77637 9.41325V6.07992C6.77637 5.19586 7.12756 4.34801 7.75268 3.72289C8.3778 3.09777 9.22565 2.74658 10.1097 2.74658C10.9938 2.74658 11.8416 3.09777 12.4667 3.72289C13.0918 4.34801 13.443 5.19586 13.443 6.07992V9.41325" stroke="#464255" stroke-width="2" stroke-linecap="round" stroke-linejoin="round"/>
<path d="M17.6097 12.7466H15.5264C15.1948 12.7466 14.8769 12.8783 14.6425 13.1127C14.4081 13.3471 14.2764 13.6651 14.2764 13.9966C14.2764 14.3281 14.4081 14.646 14.6425 14.8805C14.8769 15.1149 15.1948 15.2466 15.5264 15.2466H16.3597C16.6912 15.2466 17.0092 15.3783 17.2436 15.6127C17.478 15.8471 17.6097 16.1651 17.6097 16.4966C17.6097 16.8281 17.478 17.146 17.2436 17.3805C17.0092 17.6149 16.6912 17.7466 16.3597 17.7466H14.2764" stroke="#464255" stroke-width="2" stroke-linecap="round" stroke-linejoin="round"/>
<path d="M15.9424 17.7466V18.5799" stroke="#464255" stroke-width="2" stroke-linecap="round" stroke-linejoin="round"/>
<path d="M15.9424 11.9133V12.7467" stroke="#464255" stroke-width="2" stroke-linecap="round" stroke-linejoin="round"/>
</g>
<defs>
<clipPath id="clip0_154_4992">
<rect width="20" height="20" fill="white" transform="translate(0.109375 0.246582)"/>
</clipPath>
</defs>
</svg>
