<svg width="21" height="21" viewBox="0 0 21 21" fill="none" xmlns="http://www.w3.org/2000/svg">
<g clip-path="url(#clip0_154_4976)">
<path d="M12.6094 3.43042L17.6094 5.09709V9.26375H15.1094V15.9304C15.1094 16.1514 15.0216 16.3634 14.8653 16.5197C14.709 16.676 14.4971 16.7638 14.276 16.7638H5.94271C5.72169 16.7638 5.50973 16.676 5.35345 16.5197C5.19717 16.3634 5.10937 16.1514 5.10937 15.9304V9.26375H2.60938V5.09709L7.60937 3.43042C7.60937 4.09346 7.87277 4.72935 8.34161 5.19819C8.81045 5.66703 9.44633 5.93042 10.1094 5.93042C10.7724 5.93042 11.4083 5.66703 11.8771 5.19819C12.346 4.72935 12.6094 4.09346 12.6094 3.43042Z" stroke="#464255" stroke-width="2" stroke-linecap="round" stroke-linejoin="round"/>
</g>
<defs>
<clipPath id="clip0_154_4976">
<rect width="20" height="20" fill="white" transform="translate(0.109375 0.097168)"/>
</clipPath>
</defs>
</svg>
