<svg width="25" height="25" viewBox="0 0 25 25" fill="none" xmlns="http://www.w3.org/2000/svg">
<g clip-path="url(#clip0_158_3980)">
<path d="M5.08984 7.3786C5.08984 8.43947 5.51127 9.45688 6.26142 10.207C7.01156 10.9572 8.02898 11.3786 9.08984 11.3786C10.1507 11.3786 11.1681 10.9572 11.9183 10.207C12.6684 9.45688 13.0898 8.43947 13.0898 7.3786C13.0898 6.31773 12.6684 5.30032 11.9183 4.55017C11.1681 3.80003 10.1507 3.3786 9.08984 3.3786C8.02898 3.3786 7.01156 3.80003 6.26142 4.55017C5.51127 5.30032 5.08984 6.31773 5.08984 7.3786Z" stroke="#575757" stroke-width="2" stroke-linecap="round" stroke-linejoin="round"/>
<path d="M3.08984 21.3786V19.3786C3.08984 18.3177 3.51127 17.3003 4.26142 16.5502C5.01156 15.8 6.02898 15.3786 7.08984 15.3786H11.0898C12.1507 15.3786 13.1681 15.8 13.9183 16.5502C14.6684 17.3003 15.0898 18.3177 15.0898 19.3786V21.3786" stroke="#575757" stroke-width="2" stroke-linecap="round" stroke-linejoin="round"/>
<path d="M16.0898 3.50861C16.9503 3.72891 17.7129 4.22931 18.2575 4.93092C18.8021 5.63253 19.0977 6.49544 19.0977 7.38361C19.0977 8.27178 18.8021 9.13469 18.2575 9.8363C17.7129 10.5379 16.9503 11.0383 16.0898 11.2586" stroke="#575757" stroke-width="2" stroke-linecap="round" stroke-linejoin="round"/>
<path d="M21.0898 21.3786V19.3786C21.0848 18.4958 20.7878 17.6394 20.2451 16.943C19.7025 16.2466 18.9447 15.7493 18.0898 15.5286" stroke="#575757" stroke-width="2" stroke-linecap="round" stroke-linejoin="round"/>
</g>
<defs>
<clipPath id="clip0_158_3980">
<rect width="24" height="24" fill="white" transform="translate(0.0898438 0.378601)"/>
</clipPath>
</defs>
</svg>
