<svg width="21" height="21" viewBox="0 0 21 21" fill="none" xmlns="http://www.w3.org/2000/svg">
<g clip-path="url(#clip0_147_5708)">
<path d="M5.05469 17.7344V4.40104C5.05469 3.95901 5.23028 3.53509 5.54284 3.22253C5.8554 2.90997 6.27933 2.73438 6.72135 2.73438H15.0547C15.4967 2.73438 15.9206 2.90997 16.2332 3.22253C16.5458 3.53509 16.7214 3.95901 16.7214 4.40104V17.7344L14.2214 16.0677L12.5547 17.7344L10.888 16.0677L9.22135 17.7344L7.55469 16.0677L5.05469 17.7344Z" stroke="#464255" stroke-width="2" stroke-linecap="round" stroke-linejoin="round"/>
<path d="M13.3867 11.9011V10.2345C13.3867 9.79243 13.2111 9.36851 12.8986 9.05595C12.586 8.74338 12.1621 8.56779 11.7201 8.56779H8.38672M8.38672 8.56779L10.0534 6.90112M8.38672 8.56779L10.0534 10.2345" stroke="#464255" stroke-width="2" stroke-linecap="round" stroke-linejoin="round"/>
</g>
<defs>
<clipPath id="clip0_147_5708">
<rect width="20" height="20" fill="white" transform="translate(0.886719 0.234375)"/>
</clipPath>
</defs>
</svg>
