<svg width="21" height="21" viewBox="0 0 21 21" fill="none" xmlns="http://www.w3.org/2000/svg">
<g clip-path="url(#clip0_147_5702)">
<path d="M4.21875 16.0976C4.21875 16.5396 4.39434 16.9635 4.70691 17.2761C5.01947 17.5886 5.44339 17.7642 5.88542 17.7642C6.32744 17.7642 6.75137 17.5886 7.06393 17.2761C7.37649 16.9635 7.55208 16.5396 7.55208 16.0976C7.55208 15.6555 7.37649 15.2316 7.06393 14.9191C6.75137 14.6065 6.32744 14.4309 5.88542 14.4309C5.44339 14.4309 5.01947 14.6065 4.70691 14.9191C4.39434 15.2316 4.21875 15.6555 4.21875 16.0976Z" stroke="#464255" stroke-width="2" stroke-linecap="round" stroke-linejoin="round"/>
<path d="M13.3867 16.0976C13.3867 16.5396 13.5623 16.9635 13.8749 17.2761C14.1874 17.5886 14.6114 17.7642 15.0534 17.7642C15.4954 17.7642 15.9193 17.5886 16.2319 17.2761C16.5445 16.9635 16.7201 16.5396 16.7201 16.0976C16.7201 15.6555 16.5445 15.2316 16.2319 14.9191C15.9193 14.6065 15.4954 14.4309 15.0534 14.4309C14.6114 14.4309 14.1874 14.6065 13.8749 14.9191C13.5623 15.2316 13.3867 15.6555 13.3867 16.0976Z" stroke="#464255" stroke-width="2" stroke-linecap="round" stroke-linejoin="round"/>
<path d="M15.0521 14.4308H5.88542V2.76416H4.21875" stroke="#464255" stroke-width="2" stroke-linecap="round" stroke-linejoin="round"/>
<path d="M5.88672 4.43091L17.5534 5.26424L16.7201 11.0976H5.88672" stroke="#464255" stroke-width="2" stroke-linecap="round" stroke-linejoin="round"/>
</g>
<defs>
<clipPath id="clip0_147_5702">
<rect width="20" height="20" fill="white" transform="translate(0.886719 0.26416)"/>
</clipPath>
</defs>
</svg>
